<svg xmlns="http://www.w3.org/2000/svg" xmlns:xlink="http://www.w3.org/1999/xlink">
    <symbol viewBox="0 0 78 66" id="cons">
        <path xmlns="http://www.w3.org/2000/svg" d="M49.4,65.68a53.39,53.39,0,0,1-21.92-4.33A37.62,37.62,0,0,1,23.18,59a3.29,3.29,0,0,1-1.62-2.91c0-1.23-.07-2.46,0-3.7.09-3.7,2.12-6.27,5-8.32a31.72,31.72,0,0,1,9.34-4.25,20.16,20.16,0,0,0,3.89-1.64,4.29,4.29,0,0,0,.92-6.58,17.47,17.47,0,0,1-4-6.56,1.11,1.11,0,0,0-.49-.67c-2.6-1.06-3.06-3.41-3.41-5.76-.25-1.69-.27-3.41,1.58-4.41.15-.09.2-.45.21-.69.13-6.91,3.31-11,10.06-12.74A18.29,18.29,0,0,1,59.78,2.91,10.56,10.56,0,0,1,65,13.37a1.28,1.28,0,0,0,.48.94,3.24,3.24,0,0,1,1.39,2.57,10,10,0,0,1-1.33,5.59A4,4,0,0,1,63.93,24a3.05,3.05,0,0,0-1.33,1.49A34.85,34.85,0,0,1,59,31.34C57,33.59,57.31,37,60.22,38.41A56.74,56.74,0,0,0,66,40.5a23.91,23.91,0,0,1,8.35,4.42c3.24,2.86,3.86,6.52,3.61,10.59a4.81,4.81,0,0,1-2.38,4c-4.19,2.86-9,4-13.83,4.93A95.14,95.14,0,0,1,49.4,65.68C49.38,65.58,49.41,65.78,49.4,65.68ZM39.09,21.51a16.4,16.4,0,0,0,4.13,8.24A7.2,7.2,0,0,1,41.8,40.54a25.81,25.81,0,0,1-4.63,2.18c-2.47,1-5,1.85-7.44,3-4,2-5.71,5.31-4.94,9.77a1.75,1.75,0,0,0,.7,1.12,39.4,39.4,0,0,0,5,2.5c10.83,4.08,21.89,4.34,33,1.64a76.69,76.69,0,0,0,8.76-3,3.76,3.76,0,0,0,2.59-4.2c-.13-2.27-.57-4.3-2.27-5.87a12,12,0,0,0-3-2.18c-2.12-1-4.37-1.7-6.54-2.58a30.29,30.29,0,0,1-5.38-2.4A7.17,7.17,0,0,1,56,30.12c2.12-2.58,4-5.23,4.41-8.63,1.08-.2,2.39.22,2.71-1.31.22-1,.46-2.06.7-3.13l-2.44-.55c.09-.83.14-1.57.27-2.3.56-3.24-.18-6-2.84-8.1C54.07,2.33,45.63,2.26,40.85,6a7.53,7.53,0,0,0-3,7.79c.16.87.25,1.75.39,2.7l-2.3.52C35.75,20.14,36.47,21.18,39.09,21.51Z"/>
        <path xmlns="http://www.w3.org/2000/svg" d="M33.83,3c-.52,1.09-.95,2-1.29,2.73H10c-4.21,0-6.79,2.55-6.8,6.75q0,12.12,0,24.24c0,.36,0,.71.06,1.43,1.44-1.46,2.69-2.67,3.86-4a4.16,4.16,0,0,1,3.38-1.41c4.18.07,8.37,0,12.56.11a13.29,13.29,0,0,0,10.48-4.18c.42,1,.86,1.8,1.16,2.7.08.24-.22.73-.48.95a16,16,0,0,1-11.09,3.73C18.93,36,14.71,36,10.48,36a1.83,1.83,0,0,0-1.13.53C7.6,38.26,5.89,40,4.18,41.71c-.78.8-1.63,1.36-2.78.9A2.4,2.4,0,0,1,0,40c0-9.2,0-18.4,0-27.6C0,6.51,4.08,2.56,10,2.57q10.32,0,20.64.05A27.62,27.62,0,0,1,33.83,3Z"/>
        <path xmlns="http://www.w3.org/2000/svg" d="M49.69,40.23c.67,0,1.34,0,2,0s1.23.47.9,1.23a8.38,8.38,0,0,0-.18,5.05q.75,4.23,1.32,8.51a2.12,2.12,0,0,1-.44,1.5c-.84,1-1.82,1.87-2.74,2.8a1.15,1.15,0,0,1-1.85,0,9.44,9.44,0,0,0-1.28-1.25c-1.89-1.28-2.08-3-1.63-5.07.58-2.7,1-5.44,1.31-8.18a8.49,8.49,0,0,0-.31-2.95c-.32-1.31-.18-1.6,1.2-1.62Zm-1.23,1.23c-.13,1.88-.18,3.62-.39,5.33-.35,2.7-.82,5.39-1.21,8.08a1.34,1.34,0,0,0,.12.94c.78,1,1.63,1.91,2.49,2.89,1-1,1.61-1.73,2.35-2.35a2,2,0,0,0,.65-2c-.45-4.3-2-8.48-1.36-12.92Z"/>
    </symbol>
    <symbol viewBox="0 0 115 66" id="docs">
        <path xmlns="http://www.w3.org/2000/svg" d="M99.6,28.24l1.25-1.41,10.21,3.75-4,5.61,7.82,8.23c-4.85,1.51-9.48,3.1-14.2,4.38A8.92,8.92,0,0,0,95,52.92c-1.56,2.55-3.5,4.87-5.21,7.34a1.34,1.34,0,0,1-1.9.57c-3.33-1.36-6.69-2.66-10.09-4l.28-1.14-26.44,8c-1.77.54-3.57,1-5.32,1.65A1.85,1.85,0,0,1,44,64.77Q26.67,47.15,9.25,29.57L0,20.2c2.84-.82,5.43-1.59,8-2.33Q38.9,9,69.76.15a2.22,2.22,0,0,1,2.55.66Q85.33,14,98.42,27.06C98.76,27.41,99.12,27.75,99.6,28.24ZM3.91,21.17c.52.59.83,1,1.17,1.3q19.7,19.92,39.38,39.85a2.27,2.27,0,0,0,2.69.65c10.6-3.24,21.23-6.39,31.82-9.64a5.25,5.25,0,0,0,2.47-1.66c4-5.07,8-10.22,12-15.35L98.33,30c-.3-.35-.5-.6-.72-.83Q84.55,16,71.51,2.87a2,2,0,0,0-2.31-.44Q46.3,9,23.38,15.59ZM99.37,39.12l.14.48c-.45.16-1,.55-1.34.44a19.61,19.61,0,0,1-3.36-1.3c-1.11-.54-1.67-.23-2,.9l3.33,1.45.07.52c-.43.14-.89.45-1.27.37a11.32,11.32,0,0,1-2.13-.83C92,40.76,91.3,40.81,91,42l4.51,1.92c1,.42,1.06,1,.12,1.6-1.58-.69-3.18-1.37-4.77-2.09-.89-.41-1.42-.23-1.57.85l4.62,2c0,1-.32,1.39-1.3.92s-2.21-.94-3.32-1.42c-1.32-.57-1.32-.58-1.83.9,2.52,1.14,2.52,1.14,2,2.36-.69-.29-1.39-.57-2.08-.88-.89-.38-1.55-.32-1.8.87,1.25.59,2.48,1.18,3.72,1.74.89.41,1,.9.15,1.62-1.3-.61-2.66-1.18-4-1.87-.9-.47-1.42-.29-1.77.77L87.16,53l.13.47c-.45.15-1,.51-1.34.4-.88-.25-1.68-.79-2.55-1.08a1.4,1.4,0,0,0-1.2.26c-.82.92-1.54,1.94-2.39,3.05,2.5,1,4.86,1.85,7.16,2.84a1.73,1.73,0,0,0,2.53-.73C93.84,52.09,98.29,46,102.69,39.9c2-2.82,4-5.65,6.17-8.64-2.45-.9-4.69-1.77-7-2.5-.37-.12-.94.37-1.5.62,1,1.23,3.24.55,3.1,2.56-1.8.59-3.54-2.44-5.13.46l5,2,.1.51c-.45.15-1,.51-1.34.41-1.31-.38-2.55-1-3.86-1.35-.46-.13-1,.16-1.6.27.76,1.62,3.36.62,3.21,2.9-1.87.23-3.41-2.09-5.33,0Zm.13,7.81.19.34,11.49-3.81L106,37.79C103.79,40.94,101.64,43.94,99.5,46.93Z"/>
        <path xmlns="http://www.w3.org/2000/svg" d="M80.23,22.24,74,24.17l5.19,5.38-8.49,2.62L74,35.6c-.62.22-1.09.4-1.58.55-9.14,2.78-18.28,5.57-27.44,8.3a2.39,2.39,0,0,1-2-.32C36.8,38,30.71,31.82,24.6,25.65a7.19,7.19,0,0,1-.44-.64L35.1,21.87c11.13-3.19,22.26-6.36,33.37-9.61a2.36,2.36,0,0,1,2.8.77C74.15,16.09,77.12,19.06,80.23,22.24ZM26.72,25.76c5.54,5.61,10.94,11,16.26,16.49a2.16,2.16,0,0,0,2.58.59c6.72-2.08,13.47-4.11,20.2-6.16,1.81-.55,3.61-1.13,5.57-1.74l-7.06-7.22c-2.86-2.92-5.76-5.82-8.56-8.8a2.23,2.23,0,0,0-2.7-.73c-2.07.7-4.19,1.23-6.29,1.84s-4.15,1-6.12,1.8-4,1-5.91,1.63C32.14,24.25,29.56,25,26.72,25.76Zm29.62-8.5c2.6,2.62,5,5.11,7.52,7.55a1.38,1.38,0,0,0,1.12.38c4.13-1.14,8.25-2.34,12.62-3.59-2.64-2.7-5.06-5.2-7.52-7.66a1.41,1.41,0,0,0-1.16-.26C64.78,14.82,60.66,16,56.34,17.26Zm9,9.54c1.38,1.39,2.54,2.6,3.75,3.76a1,1,0,0,0,.84.27c2.13-.6,4.24-1.26,6.55-2-1.32-1.35-2.41-2.5-3.55-3.59a1.48,1.48,0,0,0-1.1-.45C69.79,25.41,67.74,26.07,65.39,26.8Z"/>
        <path xmlns="http://www.w3.org/2000/svg" d="M46.64,49.93c-.19-.18-.53-.34-.54-.53a1,1,0,0,1,.34-.78,4.62,4.62,0,0,1,1.23-.44l26.61-8.1a2.58,2.58,0,0,1,.94-.25,3.25,3.25,0,0,1,1,.41,3.46,3.46,0,0,1-.54.87,2.39,2.39,0,0,1-.92.32L48,49.57C47.54,49.7,47.12,49.8,46.64,49.93Z"/>
        <path xmlns="http://www.w3.org/2000/svg" d="M49.47,53.29c-.17-.19-.45-.36-.49-.58a.83.83,0,0,1,.25-.69,3.72,3.72,0,0,1,1.05-.42l21.17-6.38a2.74,2.74,0,0,1,.94-.25,1,1,0,0,1,.76.41,1,1,0,0,1-.29.8,2.19,2.19,0,0,1-.9.36L50.48,53C50.17,53.12,49.85,53.2,49.47,53.29Z"/>

    </symbol>
    <symbol viewBox="0 0 88 75" id="indic">
        <path xmlns="http://www.w3.org/2000/svg"  d="M19.74,18.35A19.19,19.19,0,1,1,.5,37.17,19.2,19.2,0,0,1,19.74,18.35Zm8.72,19.76A3.65,3.65,0,0,1,25.84,36c-.3-.55-.56-1.13-.81-1.71-.42-.93-.79-1.89-1.25-2.81s-.88-1.82-2-1.82-1.6,1-2,1.86-.69,1.65-1.08,2.45a28.4,28.4,0,0,1-1.61,3,2.74,2.74,0,0,1-2.77,1.12,6.42,6.42,0,0,1-3.2-1.42C9,35,7.15,35.09,5,36.61A23.73,23.73,0,0,1,2.12,38a.87.87,0,0,0-.41.65A18,18,0,0,0,7,50.4c.78.78,1.08.74,1.62-.26a8.35,8.35,0,0,0,.56-1.3c.34-1.08.62-2.17,1-3.25s.68-2.32,1.13-3.44.94-2,2.26-2,1.76,1.06,2.26,2c.13.24.23.5.45,1a21.23,21.23,0,0,0,1.78-1.58c2-2.26,4-2.27,6,0a5.49,5.49,0,0,0,1.14,1.07c.83.54,1.49.38,1.86-.52C27.56,40.86,28,39.53,28.46,38.11ZM16.54,44.4c.55,1.68,1.1,3.6,1.8,5.46.5,1.34,1.5,1.54,2.62.65a18,18,0,0,0,1.44-1.46c1.9-1.95,4.12-1.92,6,.08a8.32,8.32,0,0,0,1.38,1.4c.88.59,1.79.94,2.69-.18.16-.2.36-.38.54-.58a17.6,17.6,0,0,0,3.53-5.63c-1.3-.3-1.77-1.31-2.16-2.36-.29-.81-.52-1.65-.77-2.48-.41-1.3-.79-2.62-1.26-3.9-.15-.4-.58-.69-.88-1-.33.35-.8.64-1,1-.46,1.18-.78,2.4-1.17,3.6A34.68,34.68,0,0,1,28,42.72a2.07,2.07,0,0,1-3.27,1,7.27,7.27,0,0,1-1.64-1.45c-1.45-1.59-2.66-1.57-4.1,0C18.31,43,17.49,43.57,16.54,44.4ZM8.76,51.83c6.62,5.22,16,4.65,21.31.41L27.63,50a7.35,7.35,0,0,0-1.14-1,2.52,2.52,0,0,0-3.15.62,14.18,14.18,0,0,1-1.77,1.78c-1.55,1.09-3.21,1.12-4.17-.92a18.69,18.69,0,0,1-.92-2.43c-.55-1.75-1-3.53-1.61-5.27-.22-.66-.44-1.57-1.35-1.54s-1.06.9-1.27,1.55c-.54,1.59-1,3.22-1.46,4.82A9,9,0,0,1,8.76,51.83Zm9.48-19.64a2.84,2.84,0,0,1-1.9-1.79c-.4-.88-.74-1.8-1.2-2.65s-1-.82-1.48-.05A13.94,13.94,0,0,0,13,29.05c-.27.6-.5,1.22-.82,1.79a2.19,2.19,0,0,1-3.2,1,6.53,6.53,0,0,1-1-.64,2.41,2.41,0,0,0-3.24,0,14.76,14.76,0,0,1-2,.92c-.14.07-.34.18-.37.31-.3,1.45-.58,2.9-.88,4.43a4.16,4.16,0,0,0,2.76-1.13,5.64,5.64,0,0,1,7.52,0,7.89,7.89,0,0,0,1.4.89c1.6.73,2.66.41,3.5-1.13C17.28,34.45,17.71,33.35,18.24,32.19Z"/>
        <path xmlns="http://www.w3.org/2000/svg" d="M18.93,57.82h2.84c0,3.31-.06,6.49,0,9.67.07,3,2.25,5,4.92,4.56a4.29,4.29,0,0,0,3.68-4.27c.06-1.33,0-2.68,0-4.29H73.59V57.83h2.87v5.6H88.18A39.41,39.41,0,0,1,87.57,70a6.46,6.46,0,0,1-5.8,4.87,14.85,14.85,0,0,1-2.11.13q-26.2,0-52.42,0c-4.79,0-8-2.41-8.26-6.48C18.76,65,18.93,61.47,18.93,57.82ZM32.31,72a.49.49,0,0,0,.23.07q24.09,0,48.18,0c3.15,0,4.82-2.37,4.16-5.67H33.6Z"/>
        <path xmlns="http://www.w3.org/2000/svg" d="M7.5,11.66C6.51,3,9.85-.11,17.74,0,34.5.25,51.28.07,68.05.08c5.72,0,8.45,2.78,8.45,8.5,0,1.92,0,3.84,0,5.76v5.81H73.62V16.58c0-2.75,0-5.5,0-8.26C73.6,4.47,72.1,3,68.26,3H21c.26,2.38.6,4.68.72,7s0,4.73,0,7.26H18.92V11.66Zm11.31-3c.25-2.24-.22-4-2.14-5.1a4,4,0,0,0-4.68.3c-1.6,1.18-1.94,2.85-1.6,4.8Z"/>
        <path xmlns="http://www.w3.org/2000/svg" d="M61.46,27.9c-1.73.37-3,.58-4.27.93a3.21,3.21,0,0,0-1.49.92c-1.51,1.81-2.93,3.71-4.42,5.54a3.08,3.08,0,0,0-.86,3.06,4.07,4.07,0,0,1-3.11,4.8,4.26,4.26,0,0,1-5-2.53,4.16,4.16,0,0,1,1.78-5.31,3.14,3.14,0,0,1,2-.56c1.76.47,2.54-.57,3.39-1.74s1.86-2.45,2.85-3.62,2-2.35,1.28-4.36,1.27-4.3,3.49-4.71A4.52,4.52,0,0,1,62,23.43a5.81,5.81,0,0,0,1.78,2.41c1.09.88,2.56,1.31,3.55,2.25,1.78,1.69,3.78.9,5.71.86.33,0,.7-.5,1-.83,1.74-2.05,3.5-4.08,5.14-6.21a2.81,2.81,0,0,0,.42-2A4.32,4.32,0,1,1,88,18.77c0,2.56-2.08,4.39-4.81,4.34a2.66,2.66,0,0,0-1.88.77q-2.52,2.76-4.78,5.75a2.39,2.39,0,0,0-.36,1.93,4.25,4.25,0,0,1-1.06,4.76,4,4,0,0,1-4.61.84,4.34,4.34,0,0,1-2.65-4.28A2.23,2.23,0,0,0,67,31.29C65,30,63,28.82,61.46,27.9ZM83.67,16.78c-.65,1-1.32,1.58-1.28,2.12s.83.89,1.29,1.33c.46-.49,1.18-.92,1.3-1.48S84.36,17.76,83.67,16.78ZM72.09,35.18c.67-.85,1.41-1.38,1.35-1.79-.08-.57-.77-1-1.2-1.57-.49.47-1.23.88-1.38,1.45C70.76,33.66,71.47,34.27,72.09,35.18ZM57.88,26.63c.61-1,1.25-1.6,1.22-2.16s-1-1.25-1.31-1.15a2.08,2.08,0,0,0-1.28,1.41C56.44,25.15,57.17,25.7,57.88,26.63ZM48.31,38.89c-1-.61-1.61-1.24-2.17-1.22S44.9,38.64,45,39a2.08,2.08,0,0,0,1.41,1.27C46.83,40.32,47.37,39.6,48.31,38.89Z"/>
        <path xmlns="http://www.w3.org/2000/svg" d="M42,54.7V52H88V54.7Z"/>
        <path xmlns="http://www.w3.org/2000/svg" d="M82.38,26.09h2.67V49H82.38Z"/>
        <path xmlns="http://www.w3.org/2000/svg" d="M56.47,31.86h2.66V49H56.47Z"/>
        <path xmlns="http://www.w3.org/2000/svg" d="M65,8.87V11.5H27.66V8.87Z"/>
        <path xmlns="http://www.w3.org/2000/svg" d="M73.47,49h-2.6V40.53h2.6Z"/>
        <path xmlns="http://www.w3.org/2000/svg" d="M45,46.27h2.63v2.64H45Z"/>
    </symbol>
    <symbol viewBox="0 0 61 76" id="kit">
        <path xmlns="http://www.w3.org/2000/svg" d="M0,76c0-6.28-.09-12.43,0-18.57a10.65,10.65,0,0,1,2.46-6.07A3.28,3.28,0,0,0,3,49.45q0-23.89,0-47.79V0H57.32V4.24h3.26c0,.58.07,1,.07,1.46q0,30.75,0,61.5a3.1,3.1,0,0,1-.89,2.28c-1.74,1.9-3.39,3.88-5.14,5.77a2.26,2.26,0,0,1-1.46.71Q26.84,76,.5,76C.32,76,.15,76,0,76ZM4.15,1.08V2.8q0,23.57,0,47.13a2.69,2.69,0,0,1-.38,1.63A12.91,12.91,0,0,0,.89,60.4c0,4.35,0,8.69,0,13v1.39c.3,0,.39.07.48.07q25.67,0,51.34,0a2.12,2.12,0,0,0,1.36-.64c1.6-1.73,3.19-3.47,4.66-5.3a3.69,3.69,0,0,0,.8-2.15q.06-29.94,0-59.9V5.31h-3.3V1.08Z"/>
        <path xmlns="http://www.w3.org/2000/svg" d="M5.28,49.92V2.19H55.21c0,2.17,0,4.32,0,6.48a1.08,1.08,0,0,1-.34.69A12.43,12.43,0,0,1,50,12.81c-7.48,2.44-12.33,7.55-14.59,15.13a51.28,51.28,0,0,1-4.81,11c-2.35,4.07-5.92,6-10.31,6.91-2.91.59-5.85,1.09-8.72,1.85C9.44,48.23,7.42,49.14,5.28,49.92ZM46.57,12.84A32.56,32.56,0,0,0,51.3,11,5.68,5.68,0,0,0,54,8.29c.46-1.56.12-3.36.12-5H6.38V48c1.81-.56,3.59-1.2,5.41-1.64,3.63-.88,7.32-1.54,10.93-2.5A9.08,9.08,0,0,0,28.92,39H8.58V6.55H51.89V9.73H46.57ZM40,16.28H29.22V38.77a18.3,18.3,0,0,0,1.28-2.1c1.48-3.57,3-7.15,4.36-10.74,1.77-4.51,4.21-8.49,8.42-11.14.89-.56,1.8-1.09,2.9-1.75H40ZM50.75,8.59c.4-1.31-.5-1-1.11-1H19c-2.8,0-5.61,0-8.42,0-.78,0-1.29.12-.72,1.06Zm-5.44,3.26c.4-1.15-.31-1.06-1-1.06H10.67c-.7,0-1.48-.08-.88,1ZM9.44,14.72l.33.36H38.82c.35-1.19-.46-1-1.1-1H13c-.9,0-1.81-.06-2.71,0C10,14.12,9.73,14.5,9.44,14.72Zm18.39,6.91.33-.39c-.31-.22-.61-.63-.92-.64-5.62,0-11.23,0-16.84,0-.88,0-1,.35-.66,1.06Zm0-3.26.33-.4c-.31-.21-.62-.62-.93-.63-5.61,0-11.22,0-16.83,0-.88,0-1,.36-.67,1.06Zm0,6.52.33-.4c-.31-.22-.62-.62-.93-.63-5.61,0-11.22,0-16.83,0-.88,0-1,.36-.67,1.06Zm0,3.26.33-.4c-.31-.22-.62-.62-.93-.63-5.61,0-11.22,0-16.83,0-.89,0-1,.36-.67,1.06Zm-18,2.23-.33.4c.31.22.62.63.93.63,5.61,0,11.22,0,16.83,0,.88,0,1-.37.67-1.07Zm0,3.26-.32.41c.31.21.62.62.93.62,5.61,0,11.22,0,16.83,0,.89,0,1-.37.66-1.07Zm18,4.29.33-.4c-.31-.22-.62-.62-.93-.63-5.61,0-11.22,0-16.83,0-.89,0-1,.36-.66,1.06Z"/>
        <path xmlns="http://www.w3.org/2000/svg" d="M51.89,13.17V73.74H2c0-4.7,0-9.35,0-14a16.41,16.41,0,0,1,.25-2.42,9,9,0,0,1,6.16-7.58c3.32-1.11,6.8-1.75,10.22-2.53,4.2-1,8.57-1.71,11.22-5.56a58.13,58.13,0,0,0,4.72-8.49C36,30,36.93,26.64,38.37,23.5,41,17.76,46.13,15.11,51.89,13.17Zm-1.1,59.51V14.86l-.58.17A19.17,19.17,0,0,0,37.78,27.64a85.69,85.69,0,0,1-4.45,10.71,23.23,23.23,0,0,1-4.42,5.93c-2.63,2.59-6.25,3.22-9.74,4S12.28,49.7,9,50.78a7.85,7.85,0,0,0-5.64,7.39c-.22,3.1-.2,6.23-.26,9.34,0,1.71,0,3.41,0,5.17Z"/>
        <path xmlns="http://www.w3.org/2000/svg" d="M58.48,7.56V8.91q0,28.65,0,57.3a3.24,3.24,0,0,1-.94,2.52c-1.47,1.47-2.84,3-4.41,4.74,0-.56-.1-.92-.1-1.29q0-29.27,0-58.52a2.85,2.85,0,0,1,.7-1.75c1.4-1.58,2.9-3.07,4.36-4.6ZM54.13,70.67a25.88,25.88,0,0,1,1.77-1.9,4.62,4.62,0,0,0,1.53-3.93c-.06-17.73,0-35.46,0-53.19V10.22L57.06,10a14,14,0,0,1-1.5,1.66,4,4,0,0,0-1.47,3.52c.06,17.91,0,35.82,0,53.73Z"/>
        <path xmlns="http://www.w3.org/2000/svg" d="M31.34,70.56A11.44,11.44,0,1,1,42.58,59.2,11.51,11.51,0,0,1,31.34,70.56Zm10-11.45a10.27,10.27,0,1,0-20.53,0A10.21,10.21,0,0,0,31.06,69.4,10.07,10.07,0,0,0,41.37,59.11Z"/>
        <path xmlns="http://www.w3.org/2000/svg" d="M30.33,67.24c-2-3-3.81-5.85-5.73-8.78,2.44-.32,4.63-.58,5.56,2.52,1.37-2,2.62-3.7,3.7-5.48a2.2,2.2,0,0,1,2.39-1.25,25.47,25.47,0,0,0,2.8,0ZM36.67,55.7l-.17-.33a6.22,6.22,0,0,0-1.44.55,4.24,4.24,0,0,0-.77,1.1c-1.31,1.91-2.61,3.82-3.88,5.69-1.48-.94-1.51-3.17-3.83-3.34l3.76,5.75Z"/>
    </symbol>
    <symbol id="report" viewBox="0 0 82 79">
        <path d="M72.32,40c.21,4.93.44,9.87.65,14.8.29,6.62.6,13.24.86,19.86a3.49,3.49,0,0,1-3.47,3.84c-2.37.21-4.12-1-4.45-3.13-.6-4-1.16-8-1.74-12a4.93,4.93,0,0,0-.44-1.58Q62.85,67.08,62,72.38c-.17,1-.34,2-.5,3a3.25,3.25,0,0,1-3.72,3.09C55.43,78.37,54,77,54,74.89c.07-3.37.25-6.74.4-10.12Q55,51.71,55.56,38.62v-.25c0-1.76.54-3.71-.05-5.23S53.22,30.5,52,29.22s-2.6-2.73-4.15-4.34V49c0,1.77-.29,2.05-2.09,2.05H30.29c.4,1.37.75,2.62,1.11,3.87q3.21,10.89,6.4,21.78c.08.27.16.55.23.83a1.23,1.23,0,0,1-.88,1.65,1.25,1.25,0,0,1-1.62-1c-.29-.81-.5-1.65-.75-2.48q-3.49-11.89-7-23.8c-.08-.27-.19-.53-.3-.83H25.31V77c0,1.67-.39,2.37-1.31,2.4s-1.37-.64-1.37-2.42V51.15c-2.21-.3-2.2-.3-2.76,1.59L12.55,77.59c-.05.16-.07.32-.12.48-.28.77-.76,1.35-1.65,1.08a1.32,1.32,0,0,1-.87-1.87c.84-2.8,1.65-5.6,2.47-8.4q2.46-8.35,4.9-16.7c.1-.31.17-.63.3-1.16H2c-1.6,0-2-.35-2-2Q0,25.54,0,2C0,.36.38,0,2,0H45.87c1.69,0,2,.31,2,2.06,0,3.46,0,6.92,0,10.38a1.8,1.8,0,0,0,.34,1.22c3.25,2.84,6.53,5.62,9.89,8.38a10.18,10.18,0,0,1-.3-6.33c1.52-5.19,7.18-7,10.69-3.36a8.08,8.08,0,0,1,2.22,7.17,28.27,28.27,0,0,1-.9,3.27c.21.07.54.18.87.26a6,6,0,0,1,4.21,3.5q3.36,7.5,6.67,15c1,2.14.28,4.15-1.62,5a3.81,3.81,0,0,1-5.09-1.93c-.78-1.58-1.51-3.17-2.26-4.75ZM2.71,2.72V43.94H45.13a2.86,2.86,0,0,0,.11-.54c0-6.88,0-13.76,0-20.64a2.1,2.1,0,0,0-.6-1.26c-2.06-2.24-4.19-4.42-6.25-6.66a3.43,3.43,0,0,1-.14-5,3.83,3.83,0,0,1,5.35-.2c.48.41,1,.84,1.6,1.41V2.72ZM69.89,46.25c0-.53,0-1,0-1.43-.13-3.33-.28-6.66-.39-10,0-.9.16-1.79,1.21-2s1.59.46,2,1.26c.16.29.29.6.43.89q1.89,4,3.76,7.92c.38.79.73,1.76,1.86,1.28s.43-1.4.13-2.09c-2-4.63-4.14-9.23-6.13-13.88a4.35,4.35,0,0,0-3.72-2.8c-.76-.1-1.1.1-1.31.86q-.7,2.49-1.62,4.92c-.39,1-.93,2.12-2.29,2.09s-1.75-1.07-2.21-2.05a1.26,1.26,0,0,1-.15-.34c-.4-3-2.34-4.92-4.76-6.46-.13-.09-.25-.21-.38-.32L42.27,12c-.61-.53-1.26-1.14-2-.41s0,1.41.51,2c1.08,1.19,2.21,2.33,3.33,3.49q6.84,7.13,13.66,14.28a2.08,2.08,0,0,1,.51,1.31c0,2,0,3.94,0,5.92,0,2.54,0,5.08,0,7.69ZM57.76,48.92c-.1,2.2-.2,4.28-.29,6.37-.28,6.37-.55,12.74-.85,19.11,0,.91.22,1.36,1.19,1.47s1-.61,1.12-1.23q1.29-7.78,2.58-15.58c.31-1.86.61-3.73,1-5.59.15-.78.64-1.52,1.48-1.31.55.13,1,.81,1.4,1.3.14.16.09.47.13.72,1,6.71,2,13.43,2.9,20.15.16,1.12.61,1.6,1.76,1.51s1.09-.89,1.06-1.7l-.81-18c-.11-2.41-.22-4.81-.33-7.23ZM2.67,48.28H45.18V46.71H2.67Zm65.43-29c-.91-.44-1.75-.86-2.6-1.25a1.18,1.18,0,0,0-.67-.17c-1.54.26-3.09.56-4.67.86,0,2.45,1.58,4.62,3.73,4.81C65.84,23.7,67.55,22,68.1,19.27Zm-.35-3.07c-.65-2-2.07-3.15-3.65-3.14a3.69,3.69,0,0,0-3.37,2.79,13.07,13.07,0,0,0,2.21-.13A6.11,6.11,0,0,1,67.75,16.2Zm-4,13.2.31,0c.32-1.06.65-2.12,1-3.26H62.76C63.1,27.31,63.41,28.35,63.73,29.4Z"/>
    </symbol>
    <symbol id="work" viewBox="0 0 73 73">
        <path d="M17.11,12c.86-.57,1.34-.47,1.92.36l1.25,1.79c.15-.53.29-1,.41-1.46s.3-1.14.47-1.71a2,2,0,0,1,2.67-1.4,2.64,2.64,0,0,1,.8.58c1.38,1.34,2.74,2.7,4.11,4.05a2.23,2.23,0,0,1,.7,1.66v12.7a1.8,1.8,0,0,1-3,1.45,1.67,1.67,0,0,1-.61-1.37c0-3.38,0-6.76,0-10.15a1.33,1.33,0,0,0-.43-1.06c-.94-.91-1.84-1.85-2.76-2.79l-.24-.21-.34,1.26c-.11.39-.21.79-.32,1.18a1.06,1.06,0,0,1-.88.84,1,1,0,0,1-1.11-.49l-1-1.43a.69.69,0,0,0-.28-.25l2.8,7h-.88c.11.3.19.53.29.77q1.21,3.08,2.45,6.15l.06.17a.55.55,0,0,1-.29.74.54.54,0,0,1-.71-.36c-.25-.6-.48-1.21-.73-1.81Q20.46,25.63,19.42,23c-.11-.28-.25-.41-.54-.35s-.56-.1-.71-.47c-.74-1.94-1.52-3.88-2.29-5.81a1,1,0,0,0-.25-.37V29.56c0,.66-.15.92-.53.93s-.55-.27-.55-.92V15.39l-.06,0-.15.33c-.87,2.19-1.74,4.37-2.6,6.56-.11.28-.24.44-.55.38s-.63.11-.79.52C9.52,25.44,8.61,27.7,7.69,30a1.11,1.11,0,0,1-.48.5.5.5,0,0,1-.47-.17.92.92,0,0,1-.06-.65c.35-1,.75-1.92,1.14-2.89Q10.88,19.07,14,11.37a.64.64,0,0,1,.7-.47c.46,0,.93,0,1.4,0a.72.72,0,0,1,.83.56C16.94,11.65,17,11.83,17.11,12ZM19,19.79l-.12-.35q-1-2.57-2-5.15c-.21-.52-.21-.52-.79-.4,0,.12.08.23.13.35.68,1.71,1.36,3.43,2,5.14C18.43,19.87,18.43,19.87,19,19.79Z"/><path d="M22,8.14a2.18,2.18,0,1,1-2.17-2.2A2.18,2.18,0,0,1,22,8.14Z"/><path d="M13.48,9h-.81V7.59l.82,0,0-.28a.75.75,0,0,1,.8-.78h1.89a.72.72,0,0,1,.79.77c0,.68,0,1.36,0,2a.75.75,0,0,1-.78.8c-.64,0-1.29,0-1.93,0S13.58,9.82,13.48,9Z"/><path d="M61.58,13.38a11,11,0,0,1,4.64-2.68V11q0,7.59,0,15.17a.47.47,0,0,1-.34.52,2.64,2.64,0,0,1-2.15-.11,2.88,2.88,0,0,0-1.93-.33,6.56,6.56,0,0,0-1,.34,3,3,0,0,1-2.54,0,2.94,2.94,0,0,0-2-.32,9.29,9.29,0,0,0-1.12.39,2.81,2.81,0,0,1-2.22,0,3.34,3.34,0,0,0-2.07-.4,7.16,7.16,0,0,0-1.05.34,2.82,2.82,0,0,1-2.44,0,3.48,3.48,0,0,0-3.2,0,2.78,2.78,0,0,1-2.36,0,.43.43,0,0,1-.23-.3q0-7.7,0-15.4a1.05,1.05,0,0,1,0-.13l3.27.64a.43.43,0,0,1,.26.22q.6,1.2,1.17,2.43a.66.66,0,0,1,0,.34c-.08.53-.19,1.05-.23,1.59a1.39,1.39,0,0,1-.25.81,4.66,4.66,0,0,0-.61,1,2.37,2.37,0,0,0,0,1.9c.34.89.67,1.77,1,2.67a2.32,2.32,0,0,0,3,1.45,1.07,1.07,0,0,1,.64,0,2.33,2.33,0,0,0,2.3-.39,1.2,1.2,0,0,1,.66-.23c.53,0,1-.15,1.57-.15a11,11,0,0,1,1.5.18c.07,0,.14.09.2.15a2.44,2.44,0,0,0,2.43.46,1.22,1.22,0,0,1,.63,0A2.33,2.33,0,0,0,62,22.24c.27-.8.58-1.6.89-2.39a2.59,2.59,0,0,0-.34-2.75,2.33,2.33,0,0,1-.48-1.44A16.59,16.59,0,0,0,61.58,13.38Z"/><path d="M59.21,21c-.32,0-.65.08-1,.09A.41.41,0,0,1,58,21a2.3,2.3,0,0,0-2.24-.61.69.69,0,0,1-.47-.09,2.32,2.32,0,0,0-2.64,0,.61.61,0,0,1-.57.09,2.25,2.25,0,0,0-2.16.53,1,1,0,0,1-.49.13c-.59.11-.88-.1-1.11-.7a1.6,1.6,0,0,1,.11-1.73,20.71,20.71,0,0,0,1.36-3,9.2,9.2,0,0,0,.6-1.5.89.89,0,0,1,.58-.77A1,1,0,0,0,51.4,13a.87.87,0,0,1,.8-.32c1.21,0,2.42,0,3.63,0a1.6,1.6,0,0,1,.48.19s.08.09.13.13a2.71,2.71,0,0,1,.84.57c.18.26.13.67.26,1,.52,1.25,1.05,2.49,1.61,3.73.15.33.41.61.59.93a.46.46,0,0,1,.08.35C59.63,20,59.42,20.51,59.21,21Z"/><path d="M41.48,27.75a3.17,3.17,0,0,0,3-.07,2.91,2.91,0,0,1,2.4,0,3,3,0,0,0,2.22.29c.29-.09.58-.19.87-.31a2.87,2.87,0,0,1,2.33,0l.35.14a2.87,2.87,0,0,0,2.57,0,3.28,3.28,0,0,1,3,0,2.84,2.84,0,0,0,2.54,0,3.31,3.31,0,0,1,3,0,2.89,2.89,0,0,0,2.47.07,1.5,1.5,0,0,1,.27-.07c0,.63,0,1.24,0,1.84a.37.37,0,0,1-.21.28,2.71,2.71,0,0,1-2.16.08l-.9-.33a2.65,2.65,0,0,0-1.84,0l-.49.19a3,3,0,0,1-2.67,0,3.17,3.17,0,0,0-2.86,0,3,3,0,0,1-2.7,0,3.17,3.17,0,0,0-2.86,0,2.92,2.92,0,0,1-2.67,0,3.2,3.2,0,0,0-2.89,0,3,3,0,0,1-2.47.09c-.2-.08-.3-.16-.29-.39C41.5,29,41.48,28.42,41.48,27.75Z"/><path d="M48.91,12.66h1.85l0,.07a5.92,5.92,0,0,0-.62.3.59.59,0,0,0-.25.29c-.08.28-.09.59-.19.86-.48,1.2-1,2.4-1.48,3.58a7.79,7.79,0,0,1-.84,1.3.46.46,0,0,0-.06.5c.28.67.54,1.36.8,2,.52,0,1.1.09,1.68.12.07,0,.16-.09.22-.16a1.63,1.63,0,0,1,2.05-.61.63.63,0,0,0,.7-.12,1.53,1.53,0,0,1,2.2,0,.63.63,0,0,0,.71.12,1.64,1.64,0,0,1,2,.58.42.42,0,0,0,.46.15c.5-.09,1-.1,1.54-.15.28-.66.59-1.38.87-2.12a.58.58,0,0,0-.15-.4,3.6,3.6,0,0,1-.84-1.5,7.89,7.89,0,0,0-1.16-2.76,3.7,3.7,0,0,1-.4-1.27c-.05-.24-.06-.41-.34-.47a1.41,1.41,0,0,1-.56-.33H59s0,.06,0,.09a3.7,3.7,0,0,0,.46,2c.35.84.66,1.7,1.06,2.52a9.25,9.25,0,0,0,.91,1.42,1,1,0,0,1,.14,1.09c-.37.89-.69,1.79-1,2.7-.14.4-.27.5-.68.36a2.49,2.49,0,0,0-1.84,0,.6.6,0,0,1-.8-.25c-.08-.11-.17-.22-.24-.33a.68.68,0,0,0-.9-.29,1.66,1.66,0,0,0-.21.06,1.24,1.24,0,0,1-1.43-.25c-.46-.4-.6-.41-1.05,0a1.36,1.36,0,0,1-1.5.25c-.63-.24-.75-.17-1.15.37s-.49.61-1.13.35a2.18,2.18,0,0,0-1.55,0c-.54.16-.62.09-.81-.42-.32-.91-.66-1.8-1-2.69a.76.76,0,0,1,.09-.89c1.26-1.46,1.72-3.31,2.44-5A3.86,3.86,0,0,0,48.91,12.66Z"/><path d="M48.57,10.44c.45-.3.81-.57,1.2-.81A.58.58,0,0,0,50.09,9c0-.92,0-1.85,0-2.8h7.76c0,.94,0,1.87,0,2.8a.58.58,0,0,0,.31.57c.4.24.79.52,1.26.83Z"/><path d="M48.15,12V10.91H60V12Z"/><path d="M18,65.91a12,12,0,1,1,12-12A12,12,0,0,1,18,65.91ZM7.36,54.54a10.7,10.7,0,0,0,21.37,0Zm16.65-3a2.18,2.18,0,0,1-2.26-.21.71.71,0,0,0-.29-.14.58.58,0,0,0-.33.1c-.21.12-.4.35-.61.36a14.56,14.56,0,0,1-2.09,0,1.94,1.94,0,0,1-.9-.28,1.77,1.77,0,0,0-2,0,2,2,0,0,1-2.33,0,1.57,1.57,0,0,0-1.26-.3,8.56,8.56,0,0,0-1.14.47l0,.1c.55.11,1.1.2,1.64.32a2.42,2.42,0,0,1,.79.29,1.85,1.85,0,0,0,2.23,0,1.84,1.84,0,0,1,2.1,0,1.89,1.89,0,0,0,2.27,0,1.92,1.92,0,0,1,2.13,0,3.26,3.26,0,0,0,.48.27,1.34,1.34,0,0,0,1.25,0c.19-.13.21-.51.31-.78C24,51.66,24,51.61,24,51.51Zm-13.28-4,.32-.19a1.94,1.94,0,0,1,2.2,0,1.85,1.85,0,0,0,2.17,0,1.93,1.93,0,0,1,2.16,0c.16.09.32.19.49.27s.48.12.58-.24a2.63,2.63,0,0,1,.3-.57,2.26,2.26,0,0,1-1.57-.42,1.54,1.54,0,0,0-1.75,0,2.18,2.18,0,0,1-2.62,0,1.54,1.54,0,0,0-1.58-.08c-.37.17-.72.38-1.08.57Zm12.86,5.6,0-.16a2.42,2.42,0,0,1-1.9-.42,1.52,1.52,0,0,0-1.71.06,2.13,2.13,0,0,1-2.52,0,1.62,1.62,0,0,0-1.88,0,2.12,2.12,0,0,1-2.46,0,4.18,4.18,0,0,0-.78-.34,6.28,6.28,0,0,0,.31.76c.07.21.19.24.38.24H23.13A1.33,1.33,0,0,0,23.59,53.08Zm-6.68-2.34c-.05-.15-.06-.26-.1-.34s.1-.56-.27-.59a2.56,2.56,0,0,0-.75.15.68.68,0,0,0-.22.12,2.1,2.1,0,0,1-2.49,0,1.61,1.61,0,0,0-1.87,0,2.35,2.35,0,0,1-1.36.4.42.42,0,0,0-.31.21,2.72,2.72,0,0,0-.18.55,1.46,1.46,0,0,0,1.47-.1,2.2,2.2,0,0,1,2.65,0,1.49,1.49,0,0,0,1.71,0A2.34,2.34,0,0,1,16.91,50.74ZM18.35,48a6.71,6.71,0,0,1-.79-.36,1.79,1.79,0,0,0-2.14,0,2,2,0,0,1-2.19,0,1.78,1.78,0,0,0-2.36.15l.21.66a2.18,2.18,0,0,1,2.33.13,1.59,1.59,0,0,0,1.87,0A2,2,0,0,1,17,48.29a7,7,0,0,1,.87.38ZM15.88,45.8a2.1,2.1,0,0,1,1.75.27,1.76,1.76,0,0,0,2.11,0,1.89,1.89,0,0,1,1.66-.26,4.14,4.14,0,0,1,.79.39,1.74,1.74,0,0,0,1.43.12c-.51-.35-1-.65-1.44-1a2,2,0,0,0-2.53-.08,1.88,1.88,0,0,1-2.07,0,4.14,4.14,0,0,0-.84-.35.39.39,0,0,0-.33.13C16.23,45.21,16.09,45.47,15.88,45.8ZM10,50.08l.05.13a5.81,5.81,0,0,0,.92-.4,2.06,2.06,0,0,1,2.33,0,1.76,1.76,0,0,0,2,0,1.57,1.57,0,0,1,.84-.32c.58.06.89-.34,1.31-.58a1.58,1.58,0,0,0-1.85-.13,2.19,2.19,0,0,1-2.65,0,1.54,1.54,0,0,0-1.71,0,.39.39,0,0,0-.2.24,1,1,0,0,1-.8.9A1.28,1.28,0,0,0,10,50.08Zm17.19-1.91a3.78,3.78,0,0,0-.35-.24,4.46,4.46,0,0,1-.5-.22,1.86,1.86,0,0,0-2.27,0,1.89,1.89,0,0,1-2.1,0l-.5-.29c.07.31.12.59.19.86a.39.39,0,0,0,.16.18,1.82,1.82,0,0,0,2.32.07,1.69,1.69,0,0,1,1.56-.23A2.29,2.29,0,0,0,27.19,48.17Zm-.75-.83c-.23-.41-.43-.89-1.06-.69a1.16,1.16,0,0,1-.58,0,1.52,1.52,0,0,0-1.2.07,1,1,0,0,1-.36.08,2.28,2.28,0,0,1-1.49-.42,1.52,1.52,0,0,0-1.9.11,17,17,0,0,1,2.09.86,1.88,1.88,0,0,0,2.17,0,2,2,0,0,1,1.7-.24A5.11,5.11,0,0,1,26.44,47.34Zm-.83,1.28a1.52,1.52,0,0,0-1.34.22,2.06,2.06,0,0,1-2.42,0l-.18-.08a4.1,4.1,0,0,0-.06.57c0,.09,0,.22.08.25.45.26.91.67,1.46.51a7.42,7.42,0,0,0,1.65-.75A4.41,4.41,0,0,0,25.61,48.62Zm-8.84-4.21c.4.2.72.34,1,.51a1.66,1.66,0,0,0,1.53.13c.47-.21.94-.45,1.37-.66a6.49,6.49,0,0,0-3.19-.34A4,4,0,0,0,16.77,44.41Zm4.6,6.3c.32.18.61.36.92.5.89.4,2.05.2,2.08-1.19a2.19,2.19,0,0,1-2.82-.09ZM12.26,44.8l-1.77,1.42.06.13a2.26,2.26,0,0,1,2.93-.16Z"/><path d="M20.35,61a.51.51,0,0,1-.49.53.53.53,0,0,1-.55-.52.54.54,0,0,1,.52-.52A.51.51,0,0,1,20.35,61Z"/><path d="M15.88,58a.55.55,0,0,1-.51-.53.52.52,0,1,1,1,0A.54.54,0,0,1,15.88,58Z"/><path d="M16.41,61.86a.51.51,0,0,1,.52.5.5.5,0,0,1-.48.54.52.52,0,1,1,0-1Z"/><path d="M25.26,56.43a.53.53,0,0,1-.52.51.52.52,0,0,1-.51-.55.5.5,0,0,1,.53-.49A.53.53,0,0,1,25.26,56.43Z"/><path d="M13.05,60.66c-.15-.25-.33-.4-.3-.53a.49.49,0,0,1,.35-.3c.09,0,.3.21.3.32S13.23,60.42,13.05,60.66Z"/><path d="M25.69,58.42c.09.13.26.27.25.4a.5.5,0,0,1-.33.32c-.08,0-.3-.18-.31-.3s.15-.28.23-.42Z"/><path d="M22.56,58c-.25.17-.4.35-.52.33a.5.5,0,0,1-.31-.35c0-.09.2-.3.31-.3S22.31,57.84,22.56,58Z"/><path d="M19.65,57.27c-.16-.24-.33-.39-.32-.51a.49.49,0,0,1,.35-.3c.1,0,.3.19.3.3S19.82,57,19.65,57.27Z"/><path d="M18.13,58.78c.08.13.25.29.23.41a.51.51,0,0,1-.35.3c-.09,0-.29-.21-.29-.32s.16-.27.25-.4Z"/><path d="M23.6,60.63c.09.14.25.28.25.42s-.22.32-.31.3A.5.5,0,0,1,23.2,61c0-.12.16-.26.25-.4Z"/><path d="M13.82,55.73c-.14.09-.29.26-.41.24a.48.48,0,0,1-.31-.35c0-.09.2-.29.32-.29s.27.15.4.24Z"/><path d="M11.28,57.21c-.14.08-.29.26-.4.24a.52.52,0,0,1-.31-.35c0-.09.2-.29.32-.3s.26.16.39.25Z"/><path d="M27,56.28c-.09-.14-.25-.29-.23-.41a.49.49,0,0,1,.35-.3c.09,0,.29.2.29.32s-.16.26-.26.39Z"/><path d="M23.87,59c.09.14.24.28.24.41s-.22.32-.31.3a.47.47,0,0,1-.33-.31c0-.12.15-.27.24-.4Z"/><path d="M19.81,63.16c-.13.09-.28.26-.39.24a.48.48,0,0,1-.32-.33c0-.09.19-.3.3-.31s.27.15.41.24Z"/><path d="M27.54,57.2c-.16.1-.25.2-.33.2s-.14-.13-.21-.19.14-.19.24-.22S27.39,57.09,27.54,57.2Z"/><path d="M13.68,61.71c.09.13.2.23.19.29s-.14.15-.21.22-.19-.15-.2-.24S13.57,61.84,13.68,61.71Z"/><path d="M22,56.32c-.1-.18-.19-.28-.18-.37a.3.3,0,0,1,.21-.17.29.29,0,0,1,.19.2C22.19,56.07,22.09,56.15,22,56.32Z"/><path d="M9.94,55.6c-.15.1-.24.2-.32.2s-.14-.12-.21-.19.14-.19.23-.21S9.79,55.49,9.94,55.6Z"/><path d="M13.19,57.53c.11.15.22.24.22.32s-.13.15-.2.22-.18-.14-.21-.23S13.09,57.68,13.19,57.53Z"/><path d="M17.85,55.91c-.11-.15-.22-.23-.23-.31s.14-.2.19-.19a.32.32,0,0,1,.22.19C18.05,55.66,17.94,55.76,17.85,55.91Z"/><path d="M10.68,58.75c.11.15.21.24.22.32s-.14.2-.2.19a.34.34,0,0,1-.21-.21C10.48,59,10.58,58.9,10.68,58.75Z"/><path d="M21.24,60.23c-.13.11-.22.22-.28.21s-.16-.12-.25-.18c.08-.08.15-.19.24-.22S21.1,60.14,21.24,60.23Z"/><path d="M40.86,63.48H56.24c0-.34.09-.66.11-1a16.56,16.56,0,0,0-.43-5.91,8.71,8.71,0,0,0-1-2.25A4.06,4.06,0,0,0,49.32,53a12.35,12.35,0,0,0-3.45,2.86,36.2,36.2,0,0,0-4.93,7.45A1.94,1.94,0,0,0,40.86,63.48Z"/><path d="M52.52,48.41a4.12,4.12,0,1,0,4.16-4.13A4.12,4.12,0,0,0,52.52,48.41Z"/><path d="M60.27,62H58.18v1.46h8.56V62c-.41,0-.81,0-1.21,0A19.47,19.47,0,0,1,63,61.89a4.38,4.38,0,0,1-2.56-1.53,2.06,2.06,0,0,1-.35-2.4,2.35,2.35,0,0,1,2.16-1.1.5.5,0,0,1,.3.22c.23.32.44.66.65,1l.68,1,1.44-1L61.1,51.69l-1.44,1,1.92,2.94a3.38,3.38,0,0,0-2.95,2.68C58.3,59.86,59.09,61,60.27,62Z"/><path d="M67.12,58.91l-.36-.54-1.51,1-1.54,1,.36.54Z"/><rect fill="transparent" class="cls-1" x="0.59" y="0.59" width="71.61" height="71.54"/><line class="cls-1" x1="36.44" y1="0.59" x2="36.44" y2="72.13"/><line class="cls-1" x1="0.67" y1="36.36" x2="72.21" y2="36.36"/>
    </symbol>
    <use xlink:href="#kit" width="100%" height="100%" x="0" y="0"/>
    <use xlink:href="#cons" width="100%" height="100%" x="200" y="0"/>
    <use xlink:href="#docs" width="100%" height="100%" x="400" y="0"/>
    <use xlink:href="#indic" width="100%" height="100%" x="500" y="0"/>
    <use xlink:href="#report" width="100%" height="100%" x="650" y="0"/>
    <use xlink:href="#work" width="100%" height="100%" x="750" y="0"/>
</svg>
