<svg id="Layer_1" data-name="Layer 1" xmlns="http://www.w3.org/2000/svg" viewBox="0 0 60.67 75.99"><title>icon</title><path d="M0,76c0-6.28-.09-12.43,0-18.57a10.65,10.65,0,0,1,2.46-6.07A3.28,3.28,0,0,0,3,49.45q0-23.89,0-47.79V0H57.32V4.24h3.26c0,.58.07,1,.07,1.46q0,30.75,0,61.5a3.1,3.1,0,0,1-.89,2.28c-1.74,1.9-3.39,3.88-5.14,5.77a2.26,2.26,0,0,1-1.46.71Q26.84,76,.5,76C.32,76,.15,76,0,76ZM4.15,1.08V2.8q0,23.57,0,47.13a2.69,2.69,0,0,1-.38,1.63A12.91,12.91,0,0,0,.89,60.4c0,4.35,0,8.69,0,13v1.39c.3,0,.39.07.48.07q25.67,0,51.34,0a2.12,2.12,0,0,0,1.36-.64c1.6-1.73,3.19-3.47,4.66-5.3a3.69,3.69,0,0,0,.8-2.15q.06-29.94,0-59.9V5.31h-3.3V1.08Z"/><path d="M5.28,49.92V2.19H55.21c0,2.17,0,4.32,0,6.48a1.08,1.08,0,0,1-.34.69A12.43,12.43,0,0,1,50,12.81c-7.48,2.44-12.33,7.55-14.59,15.13a51.28,51.28,0,0,1-4.81,11c-2.35,4.07-5.92,6-10.31,6.91-2.91.59-5.85,1.09-8.72,1.85C9.44,48.23,7.42,49.14,5.28,49.92ZM46.57,12.84A32.56,32.56,0,0,0,51.3,11,5.68,5.68,0,0,0,54,8.29c.46-1.56.12-3.36.12-5H6.38V48c1.81-.56,3.59-1.2,5.41-1.64,3.63-.88,7.32-1.54,10.93-2.5A9.08,9.08,0,0,0,28.92,39H8.58V6.55H51.89V9.73H46.57ZM40,16.28H29.22V38.77a18.3,18.3,0,0,0,1.28-2.1c1.48-3.57,3-7.15,4.36-10.74,1.77-4.51,4.21-8.49,8.42-11.14.89-.56,1.8-1.09,2.9-1.75H40ZM50.75,8.59c.4-1.31-.5-1-1.11-1H19c-2.8,0-5.61,0-8.42,0-.78,0-1.29.12-.72,1.06Zm-5.44,3.26c.4-1.15-.31-1.06-1-1.06H10.67c-.7,0-1.48-.08-.88,1ZM9.44,14.72l.33.36H38.82c.35-1.19-.46-1-1.1-1H13c-.9,0-1.81-.06-2.71,0C10,14.12,9.73,14.5,9.44,14.72Zm18.39,6.91.33-.39c-.31-.22-.61-.63-.92-.64-5.62,0-11.23,0-16.84,0-.88,0-1,.35-.66,1.06Zm0-3.26.33-.4c-.31-.21-.62-.62-.93-.63-5.61,0-11.22,0-16.83,0-.88,0-1,.36-.67,1.06Zm0,6.52.33-.4c-.31-.22-.62-.62-.93-.63-5.61,0-11.22,0-16.83,0-.88,0-1,.36-.67,1.06Zm0,3.26.33-.4c-.31-.22-.62-.62-.93-.63-5.61,0-11.22,0-16.83,0-.89,0-1,.36-.67,1.06Zm-18,2.23-.33.4c.31.22.62.63.93.63,5.61,0,11.22,0,16.83,0,.88,0,1-.37.67-1.07Zm0,3.26-.32.41c.31.21.62.62.93.62,5.61,0,11.22,0,16.83,0,.89,0,1-.37.66-1.07Zm18,4.29.33-.4c-.31-.22-.62-.62-.93-.63-5.61,0-11.22,0-16.83,0-.89,0-1,.36-.66,1.06Z"/><path d="M51.89,13.17V73.74H2c0-4.7,0-9.35,0-14a16.41,16.41,0,0,1,.25-2.42,9,9,0,0,1,6.16-7.58c3.32-1.11,6.8-1.75,10.22-2.53,4.2-1,8.57-1.71,11.22-5.56a58.13,58.13,0,0,0,4.72-8.49C36,30,36.93,26.64,38.37,23.5,41,17.76,46.13,15.11,51.89,13.17Zm-1.1,59.51V14.86l-.58.17A19.17,19.17,0,0,0,37.78,27.64a85.69,85.69,0,0,1-4.45,10.71,23.23,23.23,0,0,1-4.42,5.93c-2.63,2.59-6.25,3.22-9.74,4S12.28,49.7,9,50.78a7.85,7.85,0,0,0-5.64,7.39c-.22,3.1-.2,6.23-.26,9.34,0,1.71,0,3.41,0,5.17Z"/><path d="M58.48,7.56V8.91q0,28.65,0,57.3a3.24,3.24,0,0,1-.94,2.52c-1.47,1.47-2.84,3-4.41,4.74,0-.56-.1-.92-.1-1.29q0-29.27,0-58.52a2.85,2.85,0,0,1,.7-1.75c1.4-1.58,2.9-3.07,4.36-4.6ZM54.13,70.67a25.88,25.88,0,0,1,1.77-1.9,4.62,4.62,0,0,0,1.53-3.93c-.06-17.73,0-35.46,0-53.19V10.22L57.06,10a14,14,0,0,1-1.5,1.66,4,4,0,0,0-1.47,3.52c.06,17.91,0,35.82,0,53.73Z"/><path d="M31.34,70.56A11.44,11.44,0,1,1,42.58,59.2,11.51,11.51,0,0,1,31.34,70.56Zm10-11.45a10.27,10.27,0,1,0-20.53,0A10.21,10.21,0,0,0,31.06,69.4,10.07,10.07,0,0,0,41.37,59.11Z"/><path d="M30.33,67.24c-2-3-3.81-5.85-5.73-8.78,2.44-.32,4.63-.58,5.56,2.52,1.37-2,2.62-3.7,3.7-5.48a2.2,2.2,0,0,1,2.39-1.25,25.47,25.47,0,0,0,2.8,0ZM36.67,55.7l-.17-.33a6.22,6.22,0,0,0-1.44.55,4.24,4.24,0,0,0-.77,1.1c-1.31,1.91-2.61,3.82-3.88,5.69-1.48-.94-1.51-3.17-3.83-3.34l3.76,5.75Z"/></svg>