<svg id="Layer_1" data-name="Layer 1" xmlns="http://www.w3.org/2000/svg" viewBox="0 0 88.18 74.99"><defs><style>.cls-1{stroke:#020608;stroke-miterlimit:10;stroke-width:1px;}</style></defs><title>icon</title><g id="indicators"><path class="cls-1" d="M19.74,18.35A19.19,19.19,0,1,1,.5,37.17,19.2,19.2,0,0,1,19.74,18.35Zm8.72,19.76A3.65,3.65,0,0,1,25.84,36c-.3-.55-.56-1.13-.81-1.71-.42-.93-.79-1.89-1.25-2.81s-.88-1.82-2-1.82-1.6,1-2,1.86-.69,1.65-1.08,2.45a28.4,28.4,0,0,1-1.61,3,2.74,2.74,0,0,1-2.77,1.12,6.42,6.42,0,0,1-3.2-1.42C9,35,7.15,35.09,5,36.61A23.73,23.73,0,0,1,2.12,38a.87.87,0,0,0-.41.65A18,18,0,0,0,7,50.4c.78.78,1.08.74,1.62-.26a8.35,8.35,0,0,0,.56-1.3c.34-1.08.62-2.17,1-3.25s.68-2.32,1.13-3.44.94-2,2.26-2,1.76,1.06,2.26,2c.13.24.23.5.45,1a21.23,21.23,0,0,0,1.78-1.58c2-2.26,4-2.27,6,0a5.49,5.49,0,0,0,1.14,1.07c.83.54,1.49.38,1.86-.52C27.56,40.86,28,39.53,28.46,38.11ZM16.54,44.4c.55,1.68,1.1,3.6,1.8,5.46.5,1.34,1.5,1.54,2.62.65a18,18,0,0,0,1.44-1.46c1.9-1.95,4.12-1.92,6,.08a8.32,8.32,0,0,0,1.38,1.4c.88.59,1.79.94,2.69-.18.16-.2.36-.38.54-.58a17.6,17.6,0,0,0,3.53-5.63c-1.3-.3-1.77-1.31-2.16-2.36-.29-.81-.52-1.65-.77-2.48-.41-1.3-.79-2.62-1.26-3.9-.15-.4-.58-.69-.88-1-.33.35-.8.64-1,1-.46,1.18-.78,2.4-1.17,3.6A34.68,34.68,0,0,1,28,42.72a2.07,2.07,0,0,1-3.27,1,7.27,7.27,0,0,1-1.64-1.45c-1.45-1.59-2.66-1.57-4.1,0C18.31,43,17.49,43.57,16.54,44.4ZM8.76,51.83c6.62,5.22,16,4.65,21.31.41L27.63,50a7.35,7.35,0,0,0-1.14-1,2.52,2.52,0,0,0-3.15.62,14.18,14.18,0,0,1-1.77,1.78c-1.55,1.09-3.21,1.12-4.17-.92a18.69,18.69,0,0,1-.92-2.43c-.55-1.75-1-3.53-1.61-5.27-.22-.66-.44-1.57-1.35-1.54s-1.06.9-1.27,1.55c-.54,1.59-1,3.22-1.46,4.82A9,9,0,0,1,8.76,51.83Zm9.48-19.64a2.84,2.84,0,0,1-1.9-1.79c-.4-.88-.74-1.8-1.2-2.65s-1-.82-1.48-.05A13.94,13.94,0,0,0,13,29.05c-.27.6-.5,1.22-.82,1.79a2.19,2.19,0,0,1-3.2,1,6.53,6.53,0,0,1-1-.64,2.41,2.41,0,0,0-3.24,0,14.76,14.76,0,0,1-2,.92c-.14.07-.34.18-.37.31-.3,1.45-.58,2.9-.88,4.43a4.16,4.16,0,0,0,2.76-1.13,5.64,5.64,0,0,1,7.52,0,7.89,7.89,0,0,0,1.4.89c1.6.73,2.66.41,3.5-1.13C17.28,34.45,17.71,33.35,18.24,32.19Z"/><path d="M18.93,57.82h2.84c0,3.31-.06,6.49,0,9.67.07,3,2.25,5,4.92,4.56a4.29,4.29,0,0,0,3.68-4.27c.06-1.33,0-2.68,0-4.29H73.59V57.83h2.87v5.6H88.18A39.41,39.41,0,0,1,87.57,70a6.46,6.46,0,0,1-5.8,4.87,14.85,14.85,0,0,1-2.11.13q-26.2,0-52.42,0c-4.79,0-8-2.41-8.26-6.48C18.76,65,18.93,61.47,18.93,57.82ZM32.31,72a.49.49,0,0,0,.23.07q24.09,0,48.18,0c3.15,0,4.82-2.37,4.16-5.67H33.6Z"/><path d="M7.5,11.66C6.51,3,9.85-.11,17.74,0,34.5.25,51.28.07,68.05.08c5.72,0,8.45,2.78,8.45,8.5,0,1.92,0,3.84,0,5.76v5.81H73.62V16.58c0-2.75,0-5.5,0-8.26C73.6,4.47,72.1,3,68.26,3H21c.26,2.38.6,4.68.72,7s0,4.73,0,7.26H18.92V11.66Zm11.31-3c.25-2.24-.22-4-2.14-5.1a4,4,0,0,0-4.68.3c-1.6,1.18-1.94,2.85-1.6,4.8Z"/><path d="M61.46,27.9c-1.73.37-3,.58-4.27.93a3.21,3.21,0,0,0-1.49.92c-1.51,1.81-2.93,3.71-4.42,5.54a3.08,3.08,0,0,0-.86,3.06,4.07,4.07,0,0,1-3.11,4.8,4.26,4.26,0,0,1-5-2.53,4.16,4.16,0,0,1,1.78-5.31,3.14,3.14,0,0,1,2-.56c1.76.47,2.54-.57,3.39-1.74s1.86-2.45,2.85-3.62,2-2.35,1.28-4.36,1.27-4.3,3.49-4.71A4.52,4.52,0,0,1,62,23.43a5.81,5.81,0,0,0,1.78,2.41c1.09.88,2.56,1.31,3.55,2.25,1.78,1.69,3.78.9,5.71.86.33,0,.7-.5,1-.83,1.74-2.05,3.5-4.08,5.14-6.21a2.81,2.81,0,0,0,.42-2A4.32,4.32,0,1,1,88,18.77c0,2.56-2.08,4.39-4.81,4.34a2.66,2.66,0,0,0-1.88.77q-2.52,2.76-4.78,5.75a2.39,2.39,0,0,0-.36,1.93,4.25,4.25,0,0,1-1.06,4.76,4,4,0,0,1-4.61.84,4.34,4.34,0,0,1-2.65-4.28A2.23,2.23,0,0,0,67,31.29C65,30,63,28.82,61.46,27.9ZM83.67,16.78c-.65,1-1.32,1.58-1.28,2.12s.83.89,1.29,1.33c.46-.49,1.18-.92,1.3-1.48S84.36,17.76,83.67,16.78ZM72.09,35.18c.67-.85,1.41-1.38,1.35-1.79-.08-.57-.77-1-1.2-1.57-.49.47-1.23.88-1.38,1.45C70.76,33.66,71.47,34.27,72.09,35.18ZM57.88,26.63c.61-1,1.25-1.6,1.22-2.16s-1-1.25-1.31-1.15a2.08,2.08,0,0,0-1.28,1.41C56.44,25.15,57.17,25.7,57.88,26.63ZM48.31,38.89c-1-.61-1.61-1.24-2.17-1.22S44.9,38.64,45,39a2.08,2.08,0,0,0,1.41,1.27C46.83,40.32,47.37,39.6,48.31,38.89Z"/><path d="M42,54.7V52H88V54.7Z"/><path d="M82.38,26.09h2.67V49H82.38Z"/><path d="M56.47,31.86h2.66V49H56.47Z"/><path d="M65,8.87V11.5H27.66V8.87Z"/><path d="M73.47,49h-2.6V40.53h2.6Z"/><path d="M45,46.27h2.63v2.64H45Z"/></g></svg>