<svg id="Layer_1" data-name="Layer 1" xmlns="http://www.w3.org/2000/svg" viewBox="0 0 78.01 65.71"><title>icon</title><g id="consultation"><path d="M49.4,65.68a53.39,53.39,0,0,1-21.92-4.33A37.62,37.62,0,0,1,23.18,59a3.29,3.29,0,0,1-1.62-2.91c0-1.23-.07-2.46,0-3.7.09-3.7,2.12-6.27,5-8.32a31.72,31.72,0,0,1,9.34-4.25,20.16,20.16,0,0,0,3.89-1.64,4.29,4.29,0,0,0,.92-6.58,17.47,17.47,0,0,1-4-6.56,1.11,1.11,0,0,0-.49-.67c-2.6-1.06-3.06-3.41-3.41-5.76-.25-1.69-.27-3.41,1.58-4.41.15-.09.2-.45.21-.69.13-6.91,3.31-11,10.06-12.74A18.29,18.29,0,0,1,59.78,2.91,10.56,10.56,0,0,1,65,13.37a1.28,1.28,0,0,0,.48.94,3.24,3.24,0,0,1,1.39,2.57,10,10,0,0,1-1.33,5.59A4,4,0,0,1,63.93,24a3.05,3.05,0,0,0-1.33,1.49A34.85,34.85,0,0,1,59,31.34C57,33.59,57.31,37,60.22,38.41A56.74,56.74,0,0,0,66,40.5a23.91,23.91,0,0,1,8.35,4.42c3.24,2.86,3.86,6.52,3.61,10.59a4.81,4.81,0,0,1-2.38,4c-4.19,2.86-9,4-13.83,4.93A95.14,95.14,0,0,1,49.4,65.68C49.38,65.58,49.41,65.78,49.4,65.68ZM39.09,21.51a16.4,16.4,0,0,0,4.13,8.24A7.2,7.2,0,0,1,41.8,40.54a25.81,25.81,0,0,1-4.63,2.18c-2.47,1-5,1.85-7.44,3-4,2-5.71,5.31-4.94,9.77a1.75,1.75,0,0,0,.7,1.12,39.4,39.4,0,0,0,5,2.5c10.83,4.08,21.89,4.34,33,1.64a76.69,76.69,0,0,0,8.76-3,3.76,3.76,0,0,0,2.59-4.2c-.13-2.27-.57-4.3-2.27-5.87a12,12,0,0,0-3-2.18c-2.12-1-4.37-1.7-6.54-2.58a30.29,30.29,0,0,1-5.38-2.4A7.17,7.17,0,0,1,56,30.12c2.12-2.58,4-5.23,4.41-8.63,1.08-.2,2.39.22,2.71-1.31.22-1,.46-2.06.7-3.13l-2.44-.55c.09-.83.14-1.57.27-2.3.56-3.24-.18-6-2.84-8.1C54.07,2.33,45.63,2.26,40.85,6a7.53,7.53,0,0,0-3,7.79c.16.87.25,1.75.39,2.7l-2.3.52C35.75,20.14,36.47,21.18,39.09,21.51Z"/><path d="M33.83,3c-.52,1.09-.95,2-1.29,2.73H10c-4.21,0-6.79,2.55-6.8,6.75q0,12.12,0,24.24c0,.36,0,.71.06,1.43,1.44-1.46,2.69-2.67,3.86-4a4.16,4.16,0,0,1,3.38-1.41c4.18.07,8.37,0,12.56.11a13.29,13.29,0,0,0,10.48-4.18c.42,1,.86,1.8,1.16,2.7.08.24-.22.73-.48.95a16,16,0,0,1-11.09,3.73C18.93,36,14.71,36,10.48,36a1.83,1.83,0,0,0-1.13.53C7.6,38.26,5.89,40,4.18,41.71c-.78.8-1.63,1.36-2.78.9A2.4,2.4,0,0,1,0,40c0-9.2,0-18.4,0-27.6C0,6.51,4.08,2.56,10,2.57q10.32,0,20.64.05A27.62,27.62,0,0,1,33.83,3Z"/><path d="M49.69,40.23c.67,0,1.34,0,2,0s1.23.47.9,1.23a8.38,8.38,0,0,0-.18,5.05q.75,4.23,1.32,8.51a2.12,2.12,0,0,1-.44,1.5c-.84,1-1.82,1.87-2.74,2.8a1.15,1.15,0,0,1-1.85,0,9.44,9.44,0,0,0-1.28-1.25c-1.89-1.28-2.08-3-1.63-5.07.58-2.7,1-5.44,1.31-8.18a8.49,8.49,0,0,0-.31-2.95c-.32-1.31-.18-1.6,1.2-1.62Zm-1.23,1.23c-.13,1.88-.18,3.62-.39,5.33-.35,2.7-.82,5.39-1.21,8.08a1.34,1.34,0,0,0,.12.94c.78,1,1.63,1.91,2.49,2.89,1-1,1.61-1.73,2.35-2.35a2,2,0,0,0,.65-2c-.45-4.3-2-8.48-1.36-12.92Z"/></g></svg>