<svg id="Layer_1" data-name="Layer 1" xmlns="http://www.w3.org/2000/svg" viewBox="0 0 114.9 65.5"><title>icon</title><g id="documentation"><path d="M99.6,28.24l1.25-1.41,10.21,3.75-4,5.61,7.82,8.23c-4.85,1.51-9.48,3.1-14.2,4.38A8.92,8.92,0,0,0,95,52.92c-1.56,2.55-3.5,4.87-5.21,7.34a1.34,1.34,0,0,1-1.9.57c-3.33-1.36-6.69-2.66-10.09-4l.28-1.14-26.44,8c-1.77.54-3.57,1-5.32,1.65A1.85,1.85,0,0,1,44,64.77Q26.67,47.15,9.25,29.57L0,20.2c2.84-.82,5.43-1.59,8-2.33Q38.9,9,69.76.15a2.22,2.22,0,0,1,2.55.66Q85.33,14,98.42,27.06C98.76,27.41,99.12,27.75,99.6,28.24ZM3.91,21.17c.52.59.83,1,1.17,1.3q19.7,19.92,39.38,39.85a2.27,2.27,0,0,0,2.69.65c10.6-3.24,21.23-6.39,31.82-9.64a5.25,5.25,0,0,0,2.47-1.66c4-5.07,8-10.22,12-15.35L98.33,30c-.3-.35-.5-.6-.72-.83Q84.55,16,71.51,2.87a2,2,0,0,0-2.31-.44Q46.3,9,23.38,15.59ZM99.37,39.12l.14.48c-.45.16-1,.55-1.34.44a19.61,19.61,0,0,1-3.36-1.3c-1.11-.54-1.67-.23-2,.9l3.33,1.45.07.52c-.43.14-.89.45-1.27.37a11.32,11.32,0,0,1-2.13-.83C92,40.76,91.3,40.81,91,42l4.51,1.92c1,.42,1.06,1,.12,1.6-1.58-.69-3.18-1.37-4.77-2.09-.89-.41-1.42-.23-1.57.85l4.62,2c0,1-.32,1.39-1.3.92s-2.21-.94-3.32-1.42c-1.32-.57-1.32-.58-1.83.9,2.52,1.14,2.52,1.14,2,2.36-.69-.29-1.39-.57-2.08-.88-.89-.38-1.55-.32-1.8.87,1.25.59,2.48,1.18,3.72,1.74.89.41,1,.9.15,1.62-1.3-.61-2.66-1.18-4-1.87-.9-.47-1.42-.29-1.77.77L87.16,53l.13.47c-.45.15-1,.51-1.34.4-.88-.25-1.68-.79-2.55-1.08a1.4,1.4,0,0,0-1.2.26c-.82.92-1.54,1.94-2.39,3.05,2.5,1,4.86,1.85,7.16,2.84a1.73,1.73,0,0,0,2.53-.73C93.84,52.09,98.29,46,102.69,39.9c2-2.82,4-5.65,6.17-8.64-2.45-.9-4.69-1.77-7-2.5-.37-.12-.94.37-1.5.62,1,1.23,3.24.55,3.1,2.56-1.8.59-3.54-2.44-5.13.46l5,2,.1.51c-.45.15-1,.51-1.34.41-1.31-.38-2.55-1-3.86-1.35-.46-.13-1,.16-1.6.27.76,1.62,3.36.62,3.21,2.9-1.87.23-3.41-2.09-5.33,0Zm.13,7.81.19.34,11.49-3.81L106,37.79C103.79,40.94,101.64,43.94,99.5,46.93Z"/><path d="M80.23,22.24,74,24.17l5.19,5.38-8.49,2.62L74,35.6c-.62.22-1.09.4-1.58.55-9.14,2.78-18.28,5.57-27.44,8.3a2.39,2.39,0,0,1-2-.32C36.8,38,30.71,31.82,24.6,25.65a7.19,7.19,0,0,1-.44-.64L35.1,21.87c11.13-3.19,22.26-6.36,33.37-9.61a2.36,2.36,0,0,1,2.8.77C74.15,16.09,77.12,19.06,80.23,22.24ZM26.72,25.76c5.54,5.61,10.94,11,16.26,16.49a2.16,2.16,0,0,0,2.58.59c6.72-2.08,13.47-4.11,20.2-6.16,1.81-.55,3.61-1.13,5.57-1.74l-7.06-7.22c-2.86-2.92-5.76-5.82-8.56-8.8a2.23,2.23,0,0,0-2.7-.73c-2.07.7-4.19,1.23-6.29,1.84s-4.15,1-6.12,1.8-4,1-5.91,1.63C32.14,24.25,29.56,25,26.72,25.76Zm29.62-8.5c2.6,2.62,5,5.11,7.52,7.55a1.38,1.38,0,0,0,1.12.38c4.13-1.14,8.25-2.34,12.62-3.59-2.64-2.7-5.06-5.2-7.52-7.66a1.41,1.41,0,0,0-1.16-.26C64.78,14.82,60.66,16,56.34,17.26Zm9,9.54c1.38,1.39,2.54,2.6,3.75,3.76a1,1,0,0,0,.84.27c2.13-.6,4.24-1.26,6.55-2-1.32-1.35-2.41-2.5-3.55-3.59a1.48,1.48,0,0,0-1.1-.45C69.79,25.41,67.74,26.07,65.39,26.8Z"/><path d="M46.64,49.93c-.19-.18-.53-.34-.54-.53a1,1,0,0,1,.34-.78,4.62,4.62,0,0,1,1.23-.44l26.61-8.1a2.58,2.58,0,0,1,.94-.25,3.25,3.25,0,0,1,1,.41,3.46,3.46,0,0,1-.54.87,2.39,2.39,0,0,1-.92.32L48,49.57C47.54,49.7,47.12,49.8,46.64,49.93Z"/><path d="M49.47,53.29c-.17-.19-.45-.36-.49-.58a.83.83,0,0,1,.25-.69,3.72,3.72,0,0,1,1.05-.42l21.17-6.38a2.74,2.74,0,0,1,.94-.25,1,1,0,0,1,.76.41,1,1,0,0,1-.29.8,2.19,2.19,0,0,1-.9.36L50.48,53C50.17,53.12,49.85,53.2,49.47,53.29Z"/></g></svg>