<svg id="Layer_1" data-name="Layer 1" xmlns="http://www.w3.org/2000/svg" viewBox="0 0 72.8 72.72"><defs><style>.cls-1{fill:none;stroke:#000;stroke-linecap:round;stroke-linejoin:round;stroke-width:1.18px;}</style></defs><title>icon</title><g id="work"><path d="M17.11,12c.86-.57,1.34-.47,1.92.36l1.25,1.79c.15-.53.29-1,.41-1.46s.3-1.14.47-1.71a2,2,0,0,1,2.67-1.4,2.64,2.64,0,0,1,.8.58c1.38,1.34,2.74,2.7,4.11,4.05a2.23,2.23,0,0,1,.7,1.66v12.7a1.8,1.8,0,0,1-3,1.45,1.67,1.67,0,0,1-.61-1.37c0-3.38,0-6.76,0-10.15a1.33,1.33,0,0,0-.43-1.06c-.94-.91-1.84-1.85-2.76-2.79l-.24-.21-.34,1.26c-.11.39-.21.79-.32,1.18a1.06,1.06,0,0,1-.88.84,1,1,0,0,1-1.11-.49l-1-1.43a.69.69,0,0,0-.28-.25l2.8,7h-.88c.11.3.19.53.29.77q1.21,3.08,2.45,6.15l.06.17a.55.55,0,0,1-.29.74.54.54,0,0,1-.71-.36c-.25-.6-.48-1.21-.73-1.81Q20.46,25.63,19.42,23c-.11-.28-.25-.41-.54-.35s-.56-.1-.71-.47c-.74-1.94-1.52-3.88-2.29-5.81a1,1,0,0,0-.25-.37V29.56c0,.66-.15.92-.53.93s-.55-.27-.55-.92V15.39l-.06,0-.15.33c-.87,2.19-1.74,4.37-2.6,6.56-.11.28-.24.44-.55.38s-.63.11-.79.52C9.52,25.44,8.61,27.7,7.69,30a1.11,1.11,0,0,1-.48.5.5.5,0,0,1-.47-.17.92.92,0,0,1-.06-.65c.35-1,.75-1.92,1.14-2.89Q10.88,19.07,14,11.37a.64.64,0,0,1,.7-.47c.46,0,.93,0,1.4,0a.72.72,0,0,1,.83.56C16.94,11.65,17,11.83,17.11,12ZM19,19.79l-.12-.35q-1-2.57-2-5.15c-.21-.52-.21-.52-.79-.4,0,.12.08.23.13.35.68,1.71,1.36,3.43,2,5.14C18.43,19.87,18.43,19.87,19,19.79Z"/><path d="M22,8.14a2.18,2.18,0,1,1-2.17-2.2A2.18,2.18,0,0,1,22,8.14Z"/><path d="M13.48,9h-.81V7.59l.82,0,0-.28a.75.75,0,0,1,.8-.78h1.89a.72.72,0,0,1,.79.77c0,.68,0,1.36,0,2a.75.75,0,0,1-.78.8c-.64,0-1.29,0-1.93,0S13.58,9.82,13.48,9Z"/><path d="M61.58,13.38a11,11,0,0,1,4.64-2.68V11q0,7.59,0,15.17a.47.47,0,0,1-.34.52,2.64,2.64,0,0,1-2.15-.11,2.88,2.88,0,0,0-1.93-.33,6.56,6.56,0,0,0-1,.34,3,3,0,0,1-2.54,0,2.94,2.94,0,0,0-2-.32,9.29,9.29,0,0,0-1.12.39,2.81,2.81,0,0,1-2.22,0,3.34,3.34,0,0,0-2.07-.4,7.16,7.16,0,0,0-1.05.34,2.82,2.82,0,0,1-2.44,0,3.48,3.48,0,0,0-3.2,0,2.78,2.78,0,0,1-2.36,0,.43.43,0,0,1-.23-.3q0-7.7,0-15.4a1.05,1.05,0,0,1,0-.13l3.27.64a.43.43,0,0,1,.26.22q.6,1.2,1.17,2.43a.66.66,0,0,1,0,.34c-.08.53-.19,1.05-.23,1.59a1.39,1.39,0,0,1-.25.81,4.66,4.66,0,0,0-.61,1,2.37,2.37,0,0,0,0,1.9c.34.89.67,1.77,1,2.67a2.32,2.32,0,0,0,3,1.45,1.07,1.07,0,0,1,.64,0,2.33,2.33,0,0,0,2.3-.39,1.2,1.2,0,0,1,.66-.23c.53,0,1-.15,1.57-.15a11,11,0,0,1,1.5.18c.07,0,.14.09.2.15a2.44,2.44,0,0,0,2.43.46,1.22,1.22,0,0,1,.63,0A2.33,2.33,0,0,0,62,22.24c.27-.8.58-1.6.89-2.39a2.59,2.59,0,0,0-.34-2.75,2.33,2.33,0,0,1-.48-1.44A16.59,16.59,0,0,0,61.58,13.38Z"/><path d="M59.21,21c-.32,0-.65.08-1,.09A.41.41,0,0,1,58,21a2.3,2.3,0,0,0-2.24-.61.69.69,0,0,1-.47-.09,2.32,2.32,0,0,0-2.64,0,.61.61,0,0,1-.57.09,2.25,2.25,0,0,0-2.16.53,1,1,0,0,1-.49.13c-.59.11-.88-.1-1.11-.7a1.6,1.6,0,0,1,.11-1.73,20.71,20.71,0,0,0,1.36-3,9.2,9.2,0,0,0,.6-1.5.89.89,0,0,1,.58-.77A1,1,0,0,0,51.4,13a.87.87,0,0,1,.8-.32c1.21,0,2.42,0,3.63,0a1.6,1.6,0,0,1,.48.19s.08.09.13.13a2.71,2.71,0,0,1,.84.57c.18.26.13.67.26,1,.52,1.25,1.05,2.49,1.61,3.73.15.33.41.61.59.93a.46.46,0,0,1,.08.35C59.63,20,59.42,20.51,59.21,21Z"/><path d="M41.48,27.75a3.17,3.17,0,0,0,3-.07,2.91,2.91,0,0,1,2.4,0,3,3,0,0,0,2.22.29c.29-.09.58-.19.87-.31a2.87,2.87,0,0,1,2.33,0l.35.14a2.87,2.87,0,0,0,2.57,0,3.28,3.28,0,0,1,3,0,2.84,2.84,0,0,0,2.54,0,3.31,3.31,0,0,1,3,0,2.89,2.89,0,0,0,2.47.07,1.5,1.5,0,0,1,.27-.07c0,.63,0,1.24,0,1.84a.37.37,0,0,1-.21.28,2.71,2.71,0,0,1-2.16.08l-.9-.33a2.65,2.65,0,0,0-1.84,0l-.49.19a3,3,0,0,1-2.67,0,3.17,3.17,0,0,0-2.86,0,3,3,0,0,1-2.7,0,3.17,3.17,0,0,0-2.86,0,2.92,2.92,0,0,1-2.67,0,3.2,3.2,0,0,0-2.89,0,3,3,0,0,1-2.47.09c-.2-.08-.3-.16-.29-.39C41.5,29,41.48,28.42,41.48,27.75Z"/><path d="M48.91,12.66h1.85l0,.07a5.92,5.92,0,0,0-.62.3.59.59,0,0,0-.25.29c-.08.28-.09.59-.19.86-.48,1.2-1,2.4-1.48,3.58a7.79,7.79,0,0,1-.84,1.3.46.46,0,0,0-.06.5c.28.67.54,1.36.8,2,.52,0,1.1.09,1.68.12.07,0,.16-.09.22-.16a1.63,1.63,0,0,1,2.05-.61.63.63,0,0,0,.7-.12,1.53,1.53,0,0,1,2.2,0,.63.63,0,0,0,.71.12,1.64,1.64,0,0,1,2,.58.42.42,0,0,0,.46.15c.5-.09,1-.1,1.54-.15.28-.66.59-1.38.87-2.12a.58.58,0,0,0-.15-.4,3.6,3.6,0,0,1-.84-1.5,7.89,7.89,0,0,0-1.16-2.76,3.7,3.7,0,0,1-.4-1.27c-.05-.24-.06-.41-.34-.47a1.41,1.41,0,0,1-.56-.33H59s0,.06,0,.09a3.7,3.7,0,0,0,.46,2c.35.84.66,1.7,1.06,2.52a9.25,9.25,0,0,0,.91,1.42,1,1,0,0,1,.14,1.09c-.37.89-.69,1.79-1,2.7-.14.4-.27.5-.68.36a2.49,2.49,0,0,0-1.84,0,.6.6,0,0,1-.8-.25c-.08-.11-.17-.22-.24-.33a.68.68,0,0,0-.9-.29,1.66,1.66,0,0,0-.21.06,1.24,1.24,0,0,1-1.43-.25c-.46-.4-.6-.41-1.05,0a1.36,1.36,0,0,1-1.5.25c-.63-.24-.75-.17-1.15.37s-.49.61-1.13.35a2.18,2.18,0,0,0-1.55,0c-.54.16-.62.09-.81-.42-.32-.91-.66-1.8-1-2.69a.76.76,0,0,1,.09-.89c1.26-1.46,1.72-3.31,2.44-5A3.86,3.86,0,0,0,48.91,12.66Z"/><path d="M48.57,10.44c.45-.3.81-.57,1.2-.81A.58.58,0,0,0,50.09,9c0-.92,0-1.85,0-2.8h7.76c0,.94,0,1.87,0,2.8a.58.58,0,0,0,.31.57c.4.24.79.52,1.26.83Z"/><path d="M48.15,12V10.91H60V12Z"/><path d="M18,65.91a12,12,0,1,1,12-12A12,12,0,0,1,18,65.91ZM7.36,54.54a10.7,10.7,0,0,0,21.37,0Zm16.65-3a2.18,2.18,0,0,1-2.26-.21.71.71,0,0,0-.29-.14.58.58,0,0,0-.33.1c-.21.12-.4.35-.61.36a14.56,14.56,0,0,1-2.09,0,1.94,1.94,0,0,1-.9-.28,1.77,1.77,0,0,0-2,0,2,2,0,0,1-2.33,0,1.57,1.57,0,0,0-1.26-.3,8.56,8.56,0,0,0-1.14.47l0,.1c.55.11,1.1.2,1.64.32a2.42,2.42,0,0,1,.79.29,1.85,1.85,0,0,0,2.23,0,1.84,1.84,0,0,1,2.1,0,1.89,1.89,0,0,0,2.27,0,1.92,1.92,0,0,1,2.13,0,3.26,3.26,0,0,0,.48.27,1.34,1.34,0,0,0,1.25,0c.19-.13.21-.51.31-.78C24,51.66,24,51.61,24,51.51Zm-13.28-4,.32-.19a1.94,1.94,0,0,1,2.2,0,1.85,1.85,0,0,0,2.17,0,1.93,1.93,0,0,1,2.16,0c.16.09.32.19.49.27s.48.12.58-.24a2.63,2.63,0,0,1,.3-.57,2.26,2.26,0,0,1-1.57-.42,1.54,1.54,0,0,0-1.75,0,2.18,2.18,0,0,1-2.62,0,1.54,1.54,0,0,0-1.58-.08c-.37.17-.72.38-1.08.57Zm12.86,5.6,0-.16a2.42,2.42,0,0,1-1.9-.42,1.52,1.52,0,0,0-1.71.06,2.13,2.13,0,0,1-2.52,0,1.62,1.62,0,0,0-1.88,0,2.12,2.12,0,0,1-2.46,0,4.18,4.18,0,0,0-.78-.34,6.28,6.28,0,0,0,.31.76c.07.21.19.24.38.24H23.13A1.33,1.33,0,0,0,23.59,53.08Zm-6.68-2.34c-.05-.15-.06-.26-.1-.34s.1-.56-.27-.59a2.56,2.56,0,0,0-.75.15.68.68,0,0,0-.22.12,2.1,2.1,0,0,1-2.49,0,1.61,1.61,0,0,0-1.87,0,2.35,2.35,0,0,1-1.36.4.42.42,0,0,0-.31.21,2.72,2.72,0,0,0-.18.55,1.46,1.46,0,0,0,1.47-.1,2.2,2.2,0,0,1,2.65,0,1.49,1.49,0,0,0,1.71,0A2.34,2.34,0,0,1,16.91,50.74ZM18.35,48a6.71,6.71,0,0,1-.79-.36,1.79,1.79,0,0,0-2.14,0,2,2,0,0,1-2.19,0,1.78,1.78,0,0,0-2.36.15l.21.66a2.18,2.18,0,0,1,2.33.13,1.59,1.59,0,0,0,1.87,0A2,2,0,0,1,17,48.29a7,7,0,0,1,.87.38ZM15.88,45.8a2.1,2.1,0,0,1,1.75.27,1.76,1.76,0,0,0,2.11,0,1.89,1.89,0,0,1,1.66-.26,4.14,4.14,0,0,1,.79.39,1.74,1.74,0,0,0,1.43.12c-.51-.35-1-.65-1.44-1a2,2,0,0,0-2.53-.08,1.88,1.88,0,0,1-2.07,0,4.14,4.14,0,0,0-.84-.35.39.39,0,0,0-.33.13C16.23,45.21,16.09,45.47,15.88,45.8ZM10,50.08l.05.13a5.81,5.81,0,0,0,.92-.4,2.06,2.06,0,0,1,2.33,0,1.76,1.76,0,0,0,2,0,1.57,1.57,0,0,1,.84-.32c.58.06.89-.34,1.31-.58a1.58,1.58,0,0,0-1.85-.13,2.19,2.19,0,0,1-2.65,0,1.54,1.54,0,0,0-1.71,0,.39.39,0,0,0-.2.24,1,1,0,0,1-.8.9A1.28,1.28,0,0,0,10,50.08Zm17.19-1.91a3.78,3.78,0,0,0-.35-.24,4.46,4.46,0,0,1-.5-.22,1.86,1.86,0,0,0-2.27,0,1.89,1.89,0,0,1-2.1,0l-.5-.29c.07.31.12.59.19.86a.39.39,0,0,0,.16.18,1.82,1.82,0,0,0,2.32.07,1.69,1.69,0,0,1,1.56-.23A2.29,2.29,0,0,0,27.19,48.17Zm-.75-.83c-.23-.41-.43-.89-1.06-.69a1.16,1.16,0,0,1-.58,0,1.52,1.52,0,0,0-1.2.07,1,1,0,0,1-.36.08,2.28,2.28,0,0,1-1.49-.42,1.52,1.52,0,0,0-1.9.11,17,17,0,0,1,2.09.86,1.88,1.88,0,0,0,2.17,0,2,2,0,0,1,1.7-.24A5.11,5.11,0,0,1,26.44,47.34Zm-.83,1.28a1.52,1.52,0,0,0-1.34.22,2.06,2.06,0,0,1-2.42,0l-.18-.08a4.1,4.1,0,0,0-.06.57c0,.09,0,.22.08.25.45.26.91.67,1.46.51a7.42,7.42,0,0,0,1.65-.75A4.41,4.41,0,0,0,25.61,48.62Zm-8.84-4.21c.4.2.72.34,1,.51a1.66,1.66,0,0,0,1.53.13c.47-.21.94-.45,1.37-.66a6.49,6.49,0,0,0-3.19-.34A4,4,0,0,0,16.77,44.41Zm4.6,6.3c.32.18.61.36.92.5.89.4,2.05.2,2.08-1.19a2.19,2.19,0,0,1-2.82-.09ZM12.26,44.8l-1.77,1.42.06.13a2.26,2.26,0,0,1,2.93-.16Z"/><path d="M20.35,61a.51.51,0,0,1-.49.53.53.53,0,0,1-.55-.52.54.54,0,0,1,.52-.52A.51.51,0,0,1,20.35,61Z"/><path d="M15.88,58a.55.55,0,0,1-.51-.53.52.52,0,1,1,1,0A.54.54,0,0,1,15.88,58Z"/><path d="M16.41,61.86a.51.51,0,0,1,.52.5.5.5,0,0,1-.48.54.52.52,0,1,1,0-1Z"/><path d="M25.26,56.43a.53.53,0,0,1-.52.51.52.52,0,0,1-.51-.55.5.5,0,0,1,.53-.49A.53.53,0,0,1,25.26,56.43Z"/><path d="M13.05,60.66c-.15-.25-.33-.4-.3-.53a.49.49,0,0,1,.35-.3c.09,0,.3.21.3.32S13.23,60.42,13.05,60.66Z"/><path d="M25.69,58.42c.09.13.26.27.25.4a.5.5,0,0,1-.33.32c-.08,0-.3-.18-.31-.3s.15-.28.23-.42Z"/><path d="M22.56,58c-.25.17-.4.35-.52.33a.5.5,0,0,1-.31-.35c0-.09.2-.3.31-.3S22.31,57.84,22.56,58Z"/><path d="M19.65,57.27c-.16-.24-.33-.39-.32-.51a.49.49,0,0,1,.35-.3c.1,0,.3.19.3.3S19.82,57,19.65,57.27Z"/><path d="M18.13,58.78c.08.13.25.29.23.41a.51.51,0,0,1-.35.3c-.09,0-.29-.21-.29-.32s.16-.27.25-.4Z"/><path d="M23.6,60.63c.09.14.25.28.25.42s-.22.32-.31.3A.5.5,0,0,1,23.2,61c0-.12.16-.26.25-.4Z"/><path d="M13.82,55.73c-.14.09-.29.26-.41.24a.48.48,0,0,1-.31-.35c0-.09.2-.29.32-.29s.27.15.4.24Z"/><path d="M11.28,57.21c-.14.08-.29.26-.4.24a.52.52,0,0,1-.31-.35c0-.09.2-.29.32-.3s.26.16.39.25Z"/><path d="M27,56.28c-.09-.14-.25-.29-.23-.41a.49.49,0,0,1,.35-.3c.09,0,.29.2.29.32s-.16.26-.26.39Z"/><path d="M23.87,59c.09.14.24.28.24.41s-.22.32-.31.3a.47.47,0,0,1-.33-.31c0-.12.15-.27.24-.4Z"/><path d="M19.81,63.16c-.13.09-.28.26-.39.24a.48.48,0,0,1-.32-.33c0-.09.19-.3.3-.31s.27.15.41.24Z"/><path d="M27.54,57.2c-.16.1-.25.2-.33.2s-.14-.13-.21-.19.14-.19.24-.22S27.39,57.09,27.54,57.2Z"/><path d="M13.68,61.71c.09.13.2.23.19.29s-.14.15-.21.22-.19-.15-.2-.24S13.57,61.84,13.68,61.71Z"/><path d="M22,56.32c-.1-.18-.19-.28-.18-.37a.3.3,0,0,1,.21-.17.29.29,0,0,1,.19.2C22.19,56.07,22.09,56.15,22,56.32Z"/><path d="M9.94,55.6c-.15.1-.24.2-.32.2s-.14-.12-.21-.19.14-.19.23-.21S9.79,55.49,9.94,55.6Z"/><path d="M13.19,57.53c.11.15.22.24.22.32s-.13.15-.2.22-.18-.14-.21-.23S13.09,57.68,13.19,57.53Z"/><path d="M17.85,55.91c-.11-.15-.22-.23-.23-.31s.14-.2.19-.19a.32.32,0,0,1,.22.19C18.05,55.66,17.94,55.76,17.85,55.91Z"/><path d="M10.68,58.75c.11.15.21.24.22.32s-.14.2-.2.19a.34.34,0,0,1-.21-.21C10.48,59,10.58,58.9,10.68,58.75Z"/><path d="M21.24,60.23c-.13.11-.22.22-.28.21s-.16-.12-.25-.18c.08-.08.15-.19.24-.22S21.1,60.14,21.24,60.23Z"/><path d="M40.86,63.48H56.24c0-.34.09-.66.11-1a16.56,16.56,0,0,0-.43-5.91,8.71,8.71,0,0,0-1-2.25A4.06,4.06,0,0,0,49.32,53a12.35,12.35,0,0,0-3.45,2.86,36.2,36.2,0,0,0-4.93,7.45A1.94,1.94,0,0,0,40.86,63.48Z"/><path d="M52.52,48.41a4.12,4.12,0,1,0,4.16-4.13A4.12,4.12,0,0,0,52.52,48.41Z"/><path d="M60.27,62H58.18v1.46h8.56V62c-.41,0-.81,0-1.21,0A19.47,19.47,0,0,1,63,61.89a4.38,4.38,0,0,1-2.56-1.53,2.06,2.06,0,0,1-.35-2.4,2.35,2.35,0,0,1,2.16-1.1.5.5,0,0,1,.3.22c.23.32.44.66.65,1l.68,1,1.44-1L61.1,51.69l-1.44,1,1.92,2.94a3.38,3.38,0,0,0-2.95,2.68C58.3,59.86,59.09,61,60.27,62Z"/><path d="M67.12,58.91l-.36-.54-1.51,1-1.54,1,.36.54Z"/><rect class="cls-1" x="0.59" y="0.59" width="71.61" height="71.54"/><line class="cls-1" x1="36.44" y1="0.59" x2="36.44" y2="72.13"/><line class="cls-1" x1="0.67" y1="36.36" x2="72.21" y2="36.36"/></g></svg>