<svg id="Layer_1" data-name="Layer 1" xmlns="http://www.w3.org/2000/svg" viewBox="0 0 81.99 79.36"><title>icon</title><path id="report" d="M72.32,40c.21,4.93.44,9.87.65,14.8.29,6.62.6,13.24.86,19.86a3.49,3.49,0,0,1-3.47,3.84c-2.37.21-4.12-1-4.45-3.13-.6-4-1.16-8-1.74-12a4.93,4.93,0,0,0-.44-1.58Q62.85,67.08,62,72.38c-.17,1-.34,2-.5,3a3.25,3.25,0,0,1-3.72,3.09C55.43,78.37,54,77,54,74.89c.07-3.37.25-6.74.4-10.12Q55,51.71,55.56,38.62v-.25c0-1.76.54-3.71-.05-5.23S53.22,30.5,52,29.22s-2.6-2.73-4.15-4.34V49c0,1.77-.29,2.05-2.09,2.05H30.29c.4,1.37.75,2.62,1.11,3.87q3.21,10.89,6.4,21.78c.08.27.16.55.23.83a1.23,1.23,0,0,1-.88,1.65,1.25,1.25,0,0,1-1.62-1c-.29-.81-.5-1.65-.75-2.48q-3.49-11.89-7-23.8c-.08-.27-.19-.53-.3-.83H25.31V77c0,1.67-.39,2.37-1.31,2.4s-1.37-.64-1.37-2.42V51.15c-2.21-.3-2.2-.3-2.76,1.59L12.55,77.59c-.05.16-.07.32-.12.48-.28.77-.76,1.35-1.65,1.08a1.32,1.32,0,0,1-.87-1.87c.84-2.8,1.65-5.6,2.47-8.4q2.46-8.35,4.9-16.7c.1-.31.17-.63.3-1.16H2c-1.6,0-2-.35-2-2Q0,25.54,0,2C0,.36.38,0,2,0H45.87c1.69,0,2,.31,2,2.06,0,3.46,0,6.92,0,10.38a1.8,1.8,0,0,0,.34,1.22c3.25,2.84,6.53,5.62,9.89,8.38a10.18,10.18,0,0,1-.3-6.33c1.52-5.19,7.18-7,10.69-3.36a8.08,8.08,0,0,1,2.22,7.17,28.27,28.27,0,0,1-.9,3.27c.21.07.54.18.87.26a6,6,0,0,1,4.21,3.5q3.36,7.5,6.67,15c1,2.14.28,4.15-1.62,5a3.81,3.81,0,0,1-5.09-1.93c-.78-1.58-1.51-3.17-2.26-4.75ZM2.71,2.72V43.94H45.13a2.86,2.86,0,0,0,.11-.54c0-6.88,0-13.76,0-20.64a2.1,2.1,0,0,0-.6-1.26c-2.06-2.24-4.19-4.42-6.25-6.66a3.43,3.43,0,0,1-.14-5,3.83,3.83,0,0,1,5.35-.2c.48.41,1,.84,1.6,1.41V2.72ZM69.89,46.25c0-.53,0-1,0-1.43-.13-3.33-.28-6.66-.39-10,0-.9.16-1.79,1.21-2s1.59.46,2,1.26c.16.29.29.6.43.89q1.89,4,3.76,7.92c.38.79.73,1.76,1.86,1.28s.43-1.4.13-2.09c-2-4.63-4.14-9.23-6.13-13.88a4.35,4.35,0,0,0-3.72-2.8c-.76-.1-1.1.1-1.31.86q-.7,2.49-1.62,4.92c-.39,1-.93,2.12-2.29,2.09s-1.75-1.07-2.21-2.05a1.26,1.26,0,0,1-.15-.34c-.4-3-2.34-4.92-4.76-6.46-.13-.09-.25-.21-.38-.32L42.27,12c-.61-.53-1.26-1.14-2-.41s0,1.41.51,2c1.08,1.19,2.21,2.33,3.33,3.49q6.84,7.13,13.66,14.28a2.08,2.08,0,0,1,.51,1.31c0,2,0,3.94,0,5.92,0,2.54,0,5.08,0,7.69ZM57.76,48.92c-.1,2.2-.2,4.28-.29,6.37-.28,6.37-.55,12.74-.85,19.11,0,.91.22,1.36,1.19,1.47s1-.61,1.12-1.23q1.29-7.78,2.58-15.58c.31-1.86.61-3.73,1-5.59.15-.78.64-1.52,1.48-1.31.55.13,1,.81,1.4,1.3.14.16.09.47.13.72,1,6.71,2,13.43,2.9,20.15.16,1.12.61,1.6,1.76,1.51s1.09-.89,1.06-1.7l-.81-18c-.11-2.41-.22-4.81-.33-7.23ZM2.67,48.28H45.18V46.71H2.67Zm65.43-29c-.91-.44-1.75-.86-2.6-1.25a1.18,1.18,0,0,0-.67-.17c-1.54.26-3.09.56-4.67.86,0,2.45,1.58,4.62,3.73,4.81C65.84,23.7,67.55,22,68.1,19.27Zm-.35-3.07c-.65-2-2.07-3.15-3.65-3.14a3.69,3.69,0,0,0-3.37,2.79,13.07,13.07,0,0,0,2.21-.13A6.11,6.11,0,0,1,67.75,16.2Zm-4,13.2.31,0c.32-1.06.65-2.12,1-3.26H62.76C63.1,27.31,63.41,28.35,63.73,29.4Z"/></svg>